<?xml version="1.0" encoding="UTF-8"?>
<svg width="700pt" height="700pt" version="1.1" viewBox="0 0 700 700" xmlns="http://www.w3.org/2000/svg" xmlns:xlink="http://www.w3.org/1999/xlink">
 <defs>
  <symbol id="m" overflow="visible">
   <path d="m31.266-1.875c-1.6172 0.84375-3.2969 1.4766-5.0469 1.8906-1.7422 0.42578-3.5586 0.64062-5.4531 0.64062-5.668 0-10.156-1.582-13.469-4.75-3.3125-3.1641-4.9688-7.4609-4.9688-12.891 0-5.4375 1.6562-9.7383 4.9688-12.906 3.3125-3.1641 7.8008-4.75 13.469-4.75 1.8945 0 3.7109 0.21484 5.4531 0.64062 1.75 0.42969 3.4297 1.0586 5.0469 1.8906v7.0469c-1.625-1.1133-3.2305-1.9258-4.8125-2.4375-1.5742-0.51953-3.2344-0.78125-4.9844-0.78125-3.1367 0-5.6016 1.0078-7.3906 3.0156-1.793 2-2.6875 4.7617-2.6875 8.2812 0 3.5117 0.89453 6.2734 2.6875 8.2812 1.7891 2 4.2539 3 7.3906 3 1.75 0 3.4102-0.25391 4.9844-0.76562 1.582-0.51953 3.1875-1.332 4.8125-2.4375z"/>
  </symbol>
  <symbol id="h" overflow="visible">
   <path d="m22.875-18.578c-0.71094-0.33203-1.418-0.57812-2.125-0.73438-0.71094-0.15625-1.418-0.23438-2.125-0.23438-2.1055 0-3.7266 0.67188-4.8594 2.0156-1.125 1.3438-1.6875 3.2656-1.6875 5.7656v11.766h-8.1562v-25.531h8.1562v4.2031c1.0508-1.6758 2.2539-2.8945 3.6094-3.6562 1.3633-0.76953 2.9922-1.1562 4.8906-1.1562 0.26953 0 0.56641 0.011719 0.89062 0.03125 0.32031 0.023437 0.78516 0.074219 1.3906 0.15625z"/>
  </symbol>
  <symbol id="a" overflow="visible">
   <path d="m29.391-12.828v2.3281h-19.062c0.19531 1.9062 0.88281 3.3398 2.0625 4.2969 1.1875 0.96094 2.8438 1.4375 4.9688 1.4375 1.7188 0 3.4766-0.25391 5.2812-0.76562 1.8008-0.50781 3.6484-1.2812 5.5469-2.3125v6.2969c-1.9297 0.73047-3.8594 1.2773-5.7969 1.6406-1.9297 0.375-3.8555 0.5625-5.7812 0.5625-4.6172 0-8.2031-1.1719-10.766-3.5156s-3.8438-5.6328-3.8438-9.875c0-4.1641 1.2539-7.4414 3.7656-9.8281 2.5195-2.3828 5.9844-3.5781 10.391-3.5781 4.0078 0 7.2188 1.2109 9.625 3.625 2.4062 2.418 3.6094 5.6484 3.6094 9.6875zm-8.375-2.7188c0-1.5391-0.45312-2.7852-1.3594-3.7344-0.90625-0.95703-2.0898-1.4375-3.5469-1.4375-1.5859 0-2.8711 0.44922-3.8594 1.3438-0.98047 0.88672-1.5898 2.1641-1.8281 3.8281z"/>
  </symbol>
  <symbol id="b" overflow="visible">
   <path d="m15.359-11.484c-1.6992 0-2.9805 0.29297-3.8438 0.875-0.85547 0.57422-1.2812 1.4219-1.2812 2.5469 0 1.0312 0.34375 1.8398 1.0312 2.4219 0.69531 0.58594 1.6602 0.875 2.8906 0.875 1.5312 0 2.8164-0.54688 3.8594-1.6406 1.0508-1.1016 1.5781-2.4844 1.5781-4.1406v-0.9375zm12.469-3.0781v14.562h-8.2344v-3.7812c-1.0938 1.5547-2.3242 2.6836-3.6875 3.3906-1.3672 0.69531-3.0273 1.0469-4.9844 1.0469-2.6484 0-4.7969-0.76953-6.4531-2.3125-1.6484-1.5391-2.4688-3.5391-2.4688-6 0-2.9883 1.0312-5.1797 3.0938-6.5781 2.0625-1.4062 5.2969-2.1094 9.7031-2.1094h4.7969v-0.64062c0-1.2891-0.51172-2.2344-1.5312-2.8281-1.0117-0.60156-2.5938-0.90625-4.75-0.90625-1.75 0-3.3828 0.17969-4.8906 0.53125-1.5 0.34375-2.8984 0.86719-4.1875 1.5625v-6.2188c1.75-0.42578 3.5039-0.75 5.2656-0.96875 1.7578-0.21875 3.5234-0.32812 5.2969-0.32812 4.5938 0 7.9102 0.91406 9.9531 2.7344 2.0508 1.8125 3.0781 4.7617 3.0781 8.8438z"/>
  </symbol>
  <symbol id="g" overflow="visible">
   <path d="m12.828-32.766v7.2344h8.4062v5.8438h-8.4062v10.828c0 1.1797 0.23438 1.9805 0.70312 2.4062 0.47656 0.41797 1.4141 0.625 2.8125 0.625h4.1875v5.8281h-7c-3.2188 0-5.5-0.67188-6.8438-2.0156s-2.0156-3.625-2.0156-6.8438v-10.828h-4.0625v-5.8438h4.0625v-7.2344z"/>
  </symbol>
  <symbol id="f" overflow="visible">
   <path d="m21.281-21.781v-13.672h8.2031v35.453h-8.2031v-3.6875c-1.125 1.5-2.3672 2.6016-3.7188 3.2969-1.3438 0.69531-2.9062 1.0469-4.6875 1.0469-3.1484 0-5.7305-1.25-7.75-3.75-2.0234-2.5-3.0312-5.7109-3.0312-9.6406 0-3.9375 1.0078-7.1562 3.0312-9.6562 2.0195-2.5 4.6016-3.75 7.75-3.75 1.7578 0 3.3164 0.35547 4.6719 1.0625 1.3633 0.71094 2.6094 1.8086 3.7344 3.2969zm-5.375 16.516c1.75 0 3.082-0.63281 4-1.9062 0.91406-1.2812 1.375-3.1328 1.375-5.5625 0-2.4375-0.46094-4.2891-1.375-5.5625-0.91797-1.2812-2.25-1.9219-4-1.9219-1.7305 0-3.0586 0.64062-3.9844 1.9219-0.91797 1.2734-1.375 3.125-1.375 5.5625 0 2.4297 0.45703 4.2812 1.375 5.5625 0.92578 1.2734 2.2539 1.9062 3.9844 1.9062z"/>
  </symbol>
  <symbol id="e" overflow="visible">
   <path d="m17.5-5.2656c1.75 0 3.082-0.63281 4-1.9062 0.91406-1.2812 1.375-3.1328 1.375-5.5625 0-2.4375-0.46094-4.2891-1.375-5.5625-0.91797-1.2812-2.25-1.9219-4-1.9219s-3.0938 0.64844-4.0312 1.9375c-0.92969 1.2812-1.3906 3.1328-1.3906 5.5469 0 2.418 0.46094 4.2656 1.3906 5.5469 0.9375 1.2812 2.2812 1.9219 4.0312 1.9219zm-5.4219-16.516c1.125-1.4883 2.3672-2.5859 3.7344-3.2969 1.3633-0.70703 2.9375-1.0625 4.7188-1.0625 3.1445 0 5.7266 1.25 7.75 3.75 2.0195 2.5 3.0312 5.7188 3.0312 9.6562 0 3.9297-1.0117 7.1406-3.0312 9.6406-2.0234 2.5-4.6055 3.75-7.75 3.75-1.7812 0-3.3555-0.35156-4.7188-1.0469-1.3672-0.70703-2.6094-1.8047-3.7344-3.2969v3.6875h-8.1562v-35.453h8.1562z"/>
  </symbol>
  <symbol id="d" overflow="visible">
   <path d="m0.5625-25.531h8.1719l6.8594 17.328 5.8281-17.328h8.1562l-10.734 27.953c-1.0742 2.832-2.3281 4.8164-3.7656 5.9531-1.4375 1.1328-3.3359 1.7031-5.6875 1.7031h-4.7188v-5.3594h2.5469c1.3828 0 2.3906-0.22656 3.0156-0.67188 0.63281-0.4375 1.1289-1.2266 1.4844-2.3594l0.21875-0.70312z"/>
  </symbol>
  <symbol id="c" overflow="visible">
   <path d="m17.906-20.859c1.3828 0 2.4297-0.30078 3.1406-0.90625 0.71875-0.60156 1.0781-1.5 1.0781-2.6875 0-1.1641-0.35938-2.0547-1.0781-2.6719-0.71094-0.61328-1.7578-0.92188-3.1406-0.92188h-4.8438v7.1875zm0.29688 14.891c1.7695 0 3.0977-0.36719 3.9844-1.1094 0.88281-0.75 1.3281-1.875 1.3281-3.375 0-1.4766-0.44531-2.582-1.3281-3.3125-0.875-0.73828-2.2031-1.1094-3.9844-1.1094h-5.1406v8.9062zm8.1562-12.234c1.8828 0.54297 3.3438 1.5547 4.375 3.0312 1.0391 1.4688 1.5625 3.2773 1.5625 5.4219 0 3.2812-1.1094 5.7305-3.3281 7.3438-2.2188 1.6055-5.5938 2.4062-10.125 2.4062h-14.562v-34.031h13.172c4.7266 0 8.1484 0.71875 10.266 2.1562 2.125 1.4297 3.1875 3.7148 3.1875 6.8594 0 1.6562-0.39062 3.0703-1.1719 4.2344-0.77344 1.1562-1.8984 2.0156-3.375 2.5781z"/>
  </symbol>
  <symbol id="l" overflow="visible">
   <path d="m29.578-15.547v15.547h-8.2031v-11.891c0-2.207-0.054688-3.7266-0.15625-4.5625-0.09375-0.83203-0.26172-1.4453-0.5-1.8438-0.32422-0.53125-0.76172-0.94141-1.3125-1.2344-0.54297-0.30078-1.1641-0.45312-1.8594-0.45312-1.6992 0-3.0391 0.65625-4.0156 1.9688-0.96875 1.3125-1.4531 3.1328-1.4531 5.4531v12.562h-8.1562v-25.531h8.1562v3.75c1.2266-1.4883 2.5352-2.5859 3.9219-3.2969 1.3828-0.70703 2.9102-1.0625 4.5781-1.0625 2.9453 0 5.1797 0.90625 6.7031 2.7188 1.5312 1.8047 2.2969 4.4297 2.2969 7.875z"/>
  </symbol>
  <symbol id="k" overflow="visible">
   <path d="m13.062-27.391v20.766h3.1406c3.582 0 6.3164-0.89062 8.2031-2.6719 1.8945-1.7812 2.8438-4.3633 2.8438-7.75 0-3.375-0.94531-5.9414-2.8281-7.7031-1.875-1.7578-4.6172-2.6406-8.2188-2.6406zm-8.7812-6.6406h9.25c5.1641 0 9.0156 0.37109 11.547 1.1094 2.5312 0.74219 4.6953 1.9922 6.5 3.75 1.6016 1.5312 2.7891 3.3047 3.5625 5.3125 0.76953 2 1.1562 4.2734 1.1562 6.8125 0 2.5742-0.38672 4.8672-1.1562 6.875-0.77344 2.0117-1.9609 3.7812-3.5625 5.3125-1.8242 1.7734-4.0117 3.0273-6.5625 3.7656-2.5547 0.73047-6.3828 1.0938-11.484 1.0938h-9.25z"/>
  </symbol>
  <symbol id="j" overflow="visible">
   <path d="m0.70312-25.531h8.1562l6.3594 17.641 6.3438-17.641h8.1719l-10.047 25.531h-8.9531z"/>
  </symbol>
  <symbol id="i" overflow="visible">
   <path d="m3.9219-25.531h8.1562v25.531h-8.1562zm0-9.9219h8.1562v6.6406h-8.1562z"/>
  </symbol>
 </defs>
 <g>
  <path d="m373.33 354.72c-77.195 0-140 41.871-140 93.336 0 51.461 62.805 93.332 140 93.332 77.199 0 140-41.871 140-93.332 0-51.465-62.801-93.336-140-93.336m0 205.34c-87.488 0-158.66-50.242-158.66-112 0-61.762 71.176-112 158.66-112 87.492 0 158.67 50.238 158.67 112 0 61.758-71.176 112-158.67 112" fill-rule="evenodd"/>
  <path d="m466.67 158.72h0.09375zm-162.34-47.758-91.188 133.28 136.26-93.223c2.5938-1.7812 5.8906-2.1172 8.7812-0.94141 2.9062 1.1836 5.0234 3.7422 5.6289 6.8125l6.7383 33.684 35.309-21.188c2.8945-1.7461 6.4766-1.7812 9.4102-0.12109 2.9297 1.6523 4.7305 4.7617 4.7305 8.1211v8.0742l37.176-30.98c-1.3555-18.664-11.156-36.93-15.207-43.762-58.285-15.875-122.51-3.1719-137.64 0.24219zm-127 178.43c-2.4062 0-4.7969-0.93359-6.5977-2.7344-3.1836-3.1758-3.6406-8.1562-1.1016-11.863l121.33-177.33c1.2695-1.8672 3.1641-3.2031 5.3398-3.7734 3.332-0.86719 82.273-21.027 154.32 0.085938 2.1094 0.60547 3.9297 1.9492 5.1445 3.7695 0.83203 1.2422 20.234 30.707 20.234 61.18 0 2.7734-1.2305 5.3945-3.3516 7.168l-56 46.668c-2.7891 2.3242-6.6719 2.8086-9.9375 1.2891-3.2773-1.543-5.3789-4.8359-5.3789-8.457v-11.52l-32.523 19.52c-2.6172 1.5664-5.8164 1.7539-8.5781 0.53906-2.7812-1.2305-4.7891-3.7344-5.3789-6.7109l-6.5703-32.816-165.68 113.36c-1.5859 1.0898-3.4336 1.6328-5.2656 1.6328z" fill-rule="evenodd"/>
  <path d="m248 186.12c-3.2578 0-6.4141-1.6992-8.1289-4.7305-54.211-95.781-6.5898-157.9 9.293-174.66 7.2539-7.6328 19.004-8.8672 27.348-2.8633 16.734 11.992 31.434 42.578 44.949 93.5 1.3242 4.9844-1.6523 10.09-6.625 11.414-4.9844 1.3164-10.102-1.6328-11.426-6.625-15.969-60.211-30.527-77.926-37.781-83.133-0.77344-0.55859-2.0977-0.32812-2.9219 0.55078-13.652 14.402-54.488 67.992-6.5977 152.61 2.5469 4.4883 0.97266 10.184-3.5273 12.723-1.4453 0.82031-3.0234 1.2109-4.582 1.2109" fill-rule="evenodd"/>
  <path d="m478.3 217.51c-1.957 0-3.9453-0.61719-5.6367-1.9023-4.1055-3.1094-4.9102-8.9727-1.793-13.07 13.879-18.281 79.746-113.04 13.48-182.96-0.82422-0.86719-2.1211-1.1289-2.9141-0.55078-7.2344 5.1992-21.746 22.84-37.668 82.715-1.3359 4.9844-6.5039 7.9219-11.426 6.6172-4.9844-1.3281-7.9414-6.4414-6.625-11.426 13.484-50.652 28.148-81.098 44.836-93.07 8.3359-5.9844 20.105-4.7617 27.348 2.875 13.449 14.184 76.059 90.848-12.152 207.08-1.8398 2.4258-4.6211 3.6953-7.4492 3.6953" fill-rule="evenodd"/>
  <path d="m488.3 391.9c-1.3906 0-2.8086-0.30859-4.1445-0.97266-4.6094-2.2969-6.5039-7.8945-4.207-12.516 5.0469-10.152 7-21.43 5.6445-32.621l-16.969-139.95c-1.6797-13.867-6.3086-26.98-13.754-38.965-2.7188-4.3867-1.375-10.137 3.0039-12.863 4.375-2.7148 10.137-1.3594 12.852 3.0078 8.8945 14.316 14.422 29.977 16.438 46.574l16.965 139.96c1.793 14.82-0.79297 29.734-7.4648 43.168-1.625 3.2734-4.9297 5.1797-8.3633 5.1797" fill-rule="evenodd"/>
  <path d="m258.36 391.9c-3.4375 0-6.7422-1.9062-8.3633-5.1797-6.6758-13.434-9.2578-28.348-7.4688-43.16l15.27-126.03c0.625-5.125 5.2734-8.7617 10.398-8.1484 5.125 0.625 8.7656 5.2734 8.1484 10.391l-15.281 126.03c-1.3516 11.18 0.59766 22.457 5.6484 32.609 2.2969 4.6211 0.40234 10.219-4.2109 12.516-1.332 0.66406-2.75 0.97266-4.1406 0.97266" fill-rule="evenodd"/>
  <path d="m317.33 410.72c-10.293 0-18.664 8.3711-18.664 18.668 0 10.293 8.3711 18.668 18.664 18.668 10.297 0 18.668-8.375 18.668-18.668 0-10.297-8.3711-18.668-18.668-18.668m0 56c-20.59 0-37.332-16.742-37.332-37.332s16.742-37.332 37.332-37.332c20.59 0 37.336 16.742 37.336 37.332s-16.746 37.332-37.336 37.332" fill-rule="evenodd"/>
  <path d="m429.33 410.72c-10.293 0-18.664 8.3711-18.664 18.668 0 10.293 8.3711 18.668 18.664 18.668 10.297 0 18.668-8.375 18.668-18.668 0-10.297-8.3711-18.668-18.668-18.668m0 56c-20.59 0-37.332-16.742-37.332-37.332s16.742-37.332 37.332-37.332c20.59 0 37.336 16.742 37.336 37.332s-16.746 37.332-37.336 37.332" fill-rule="evenodd"/>
  <path d="m326.67 242.72c-3.8086 0-9.3359 7.2734-9.3359 18.668s5.5273 18.668 9.3359 18.668c3.8086 0 9.332-7.2734 9.332-18.668s-5.5234-18.668-9.332-18.668m0 56c-15.711 0-28-16.398-28-37.332s12.289-37.332 28-37.332c15.707 0 28 16.398 28 37.332s-12.293 37.332-28 37.332" fill-rule="evenodd"/>
  <path d="m420 242.72c-3.8086 0-9.332 7.2734-9.332 18.668s5.5234 18.668 9.332 18.668 9.332-7.2734 9.332-18.668-5.5234-18.668-9.332-18.668m0 56c-15.707 0-28-16.398-28-37.332s12.293-37.332 28-37.332 28 16.398 28 37.332-12.293 37.332-28 37.332" fill-rule="evenodd"/>
  <path d="m373.24 522.67c-36.309 0-62.805-15.285-69.879-19.84v-0.011719c-0.14844-0.082031-0.29688-0.16797-0.42969-0.26172-4.332-2.7969-5.5703-8.5742-2.7734-12.906 2.8008-4.3125 8.9883-5.3125 13.301-2.5312 9.5195 6.1328 60.137 34.965 120.48-0.44531 4.4531-2.625 10.176-1.1211 12.77 3.332 2.6016 4.4414 1.1172 10.152-3.3242 12.766-25.387 14.887-49.371 19.898-70.148 19.898" fill-rule="evenodd"/>
  <use x="168" y="700" xlink:href="#m"/>
  <use x="202.25" y="700" xlink:href="#h"/>
  <use x="225.261719" y="700" xlink:href="#a"/>
  <use x="256.914062" y="700" xlink:href="#b"/>
  <use x="288.402344" y="700" xlink:href="#g"/>
  <use x="310.710938" y="700" xlink:href="#a"/>
  <use x="342.363281" y="700" xlink:href="#f"/>
  <use x="392.015625" y="700" xlink:href="#e"/>
  <use x="425.417969" y="700" xlink:href="#d"/>
  <use x="472.085938" y="700" xlink:href="#c"/>
  <use x="507.65625" y="700" xlink:href="#a"/>
  <use x="539.304688" y="700" xlink:href="#l"/>
  <use x="588.773438" y="700" xlink:href="#k"/>
  <use x="627.511719" y="700" xlink:href="#b"/>
  <use x="659.003906" y="700" xlink:href="#j"/>
  <use x="689.421875" y="700" xlink:href="#i"/>
 </g>
</svg>
