<?xml version="1.0" encoding="UTF-8"?>
<svg width="700pt" height="700pt" version="1.1" viewBox="0 0 700 700" xmlns="http://www.w3.org/2000/svg" xmlns:xlink="http://www.w3.org/1999/xlink">
 <defs>
  <symbol id="w" overflow="visible">
   <path d="m18.766-1.125c-0.96875 0.5-1.9805 0.875-3.0312 1.125-1.043 0.25781-2.1367 0.39062-3.2812 0.39062-3.3984 0-6.0898-0.94531-8.0781-2.8438-1.9922-1.9062-2.9844-4.4844-2.9844-7.7344 0-3.2578 0.99219-5.8359 2.9844-7.7344 1.9883-1.9062 4.6797-2.8594 8.0781-2.8594 1.1445 0 2.2383 0.13281 3.2812 0.39062 1.0508 0.25 2.0625 0.625 3.0312 1.125v4.2188c-0.98047-0.65625-1.9453-1.1406-2.8906-1.4531-0.94922-0.3125-1.9492-0.46875-3-0.46875-1.875 0-3.3516 0.60547-4.4219 1.8125-1.0742 1.1992-1.6094 2.8555-1.6094 4.9688 0 2.1055 0.53516 3.7617 1.6094 4.9688 1.0703 1.1992 2.5469 1.7969 4.4219 1.7969 1.0508 0 2.0508-0.14844 3-0.45312 0.94531-0.3125 1.9102-0.80078 2.8906-1.4688z"/>
  </symbol>
  <symbol id="c" overflow="visible">
   <path d="m13.734-11.141c-0.4375-0.19531-0.87109-0.34375-1.2969-0.4375-0.41797-0.10156-0.83984-0.15625-1.2656-0.15625-1.2617 0-2.2305 0.40625-2.9062 1.2188-0.67969 0.80469-1.0156 1.9531-1.0156 3.4531v7.0625h-4.8906v-15.312h4.8906v2.5156c0.625-1 1.3438-1.7266 2.1562-2.1875 0.82031-0.46875 1.8008-0.70312 2.9375-0.70312 0.16406 0 0.34375 0.011719 0.53125 0.03125 0.19531 0.011719 0.47656 0.039062 0.84375 0.078125z"/>
  </symbol>
  <symbol id="a" overflow="visible">
   <path d="m17.641-7.7031v1.4062h-11.453c0.125 1.1484 0.53906 2.0078 1.25 2.5781 0.70703 0.57422 1.7031 0.85938 2.9844 0.85938 1.0312 0 2.082-0.14844 3.1562-0.45312 1.082-0.3125 2.1914-0.77344 3.3281-1.3906v3.7656c-1.1562 0.4375-2.3125 0.76562-3.4688 0.98438-1.1562 0.22656-2.3125 0.34375-3.4688 0.34375-2.7734 0-4.9297-0.70312-6.4688-2.1094-1.5312-1.4062-2.2969-3.3789-2.2969-5.9219 0-2.5 0.75391-4.4609 2.2656-5.8906 1.5078-1.4375 3.582-2.1562 6.2188-2.1562 2.4062 0 4.332 0.73047 5.7812 2.1875 1.4453 1.4492 2.1719 3.3828 2.1719 5.7969zm-5.0312-1.625c0-0.92578-0.27344-1.6719-0.8125-2.2344-0.54297-0.57031-1.25-0.85938-2.125-0.85938-0.94922 0-1.7188 0.26562-2.3125 0.79688s-0.96484 1.2969-1.1094 2.2969z"/>
  </symbol>
  <symbol id="g" overflow="visible">
   <path d="m9.2188-6.8906c-1.0234 0-1.793 0.17188-2.3125 0.51562-0.51172 0.34375-0.76562 0.85547-0.76562 1.5312 0 0.625 0.20703 1.1172 0.625 1.4688 0.41406 0.34375 0.98828 0.51562 1.7188 0.51562 0.92578 0 1.7031-0.32812 2.3281-0.98438 0.63281-0.66406 0.95312-1.4922 0.95312-2.4844v-0.5625zm7.4688-1.8438v8.7344h-4.9219v-2.2656c-0.65625 0.92969-1.3984 1.6055-2.2188 2.0312-0.82422 0.41406-1.8242 0.625-3 0.625-1.5859 0-2.8711-0.45703-3.8594-1.375-0.99219-0.92578-1.4844-2.1289-1.4844-3.6094 0-1.7891 0.61328-3.1016 1.8438-3.9375 1.2383-0.84375 3.1797-1.2656 5.8281-1.2656h2.8906v-0.39062c0-0.76953-0.30859-1.332-0.92188-1.6875-0.61719-0.36328-1.5703-0.54688-2.8594-0.54688-1.0547 0-2.0312 0.10547-2.9375 0.3125-0.89844 0.21094-1.7305 0.52344-2.5 0.9375v-3.7344c1.0391-0.25 2.0859-0.44141 3.1406-0.57812 1.0625-0.13281 2.125-0.20312 3.1875-0.20312 2.7578 0 4.75 0.54688 5.9688 1.6406 1.2266 1.0859 1.8438 2.8555 1.8438 5.3125z"/>
  </symbol>
  <symbol id="b" overflow="visible">
   <path d="m7.7031-19.656v4.3438h5.0469v3.5h-5.0469v6.5c0 0.71094 0.14062 1.1875 0.42188 1.4375s0.83594 0.375 1.6719 0.375h2.5156v3.5h-4.1875c-1.9375 0-3.3125-0.39844-4.125-1.2031-0.80469-0.8125-1.2031-2.1797-1.2031-4.1094v-6.5h-2.4219v-3.5h2.4219v-4.3438z"/>
  </symbol>
  <symbol id="l" overflow="visible">
   <path d="m12.766-13.078v-8.2031h4.9219v21.281h-4.9219v-2.2188c-0.66797 0.90625-1.4062 1.5703-2.2188 1.9844s-1.7578 0.625-2.8281 0.625c-1.8867 0-3.4336-0.75-4.6406-2.25-1.2109-1.5-1.8125-3.4258-1.8125-5.7812 0-2.3633 0.60156-4.2969 1.8125-5.7969 1.207-1.5 2.7539-2.25 4.6406-2.25 1.0625 0 2 0.21484 2.8125 0.64062 0.82031 0.42969 1.5664 1.0859 2.2344 1.9688zm-3.2188 9.9219c1.0391 0 1.8359-0.37891 2.3906-1.1406 0.55078-0.76953 0.82812-1.8828 0.82812-3.3438 0-1.457-0.27734-2.5664-0.82812-3.3281-0.55469-0.76953-1.3516-1.1562-2.3906-1.1562-1.043 0-1.8398 0.38672-2.3906 1.1562-0.55469 0.76172-0.82812 1.8711-0.82812 3.3281 0 1.4609 0.27344 2.5742 0.82812 3.3438 0.55078 0.76172 1.3477 1.1406 2.3906 1.1406z"/>
  </symbol>
  <symbol id="k" overflow="visible">
   <path d="m10.5-3.1562c1.0508 0 1.8516-0.37891 2.4062-1.1406 0.55078-0.76953 0.82812-1.8828 0.82812-3.3438 0-1.457-0.27734-2.5664-0.82812-3.3281-0.55469-0.76953-1.3555-1.1562-2.4062-1.1562-1.0547 0-1.8594 0.38672-2.4219 1.1562-0.55469 0.77344-0.82812 1.8828-0.82812 3.3281 0 1.4492 0.27344 2.5586 0.82812 3.3281 0.5625 0.77344 1.3672 1.1562 2.4219 1.1562zm-3.25-9.9219c0.67578-0.88281 1.4219-1.5391 2.2344-1.9688 0.82031-0.42578 1.7656-0.64062 2.8281-0.64062 1.8945 0 3.4453 0.75 4.6562 2.25 1.207 1.5 1.8125 3.4336 1.8125 5.7969 0 2.3555-0.60547 4.2812-1.8125 5.7812-1.2109 1.5-2.7617 2.25-4.6562 2.25-1.0625 0-2.0078-0.21094-2.8281-0.625-0.8125-0.42578-1.5586-1.0859-2.2344-1.9844v2.2188h-4.8906v-21.281h4.8906z"/>
  </symbol>
  <symbol id="f" overflow="visible">
   <path d="m0.34375-15.312h4.8906l4.125 10.391 3.5-10.391h4.8906l-6.4375 16.766c-0.64844 1.6953-1.4023 2.8828-2.2656 3.5625-0.86719 0.6875-2 1.0312-3.4062 1.0312h-2.8438v-3.2188h1.5312c0.83203 0 1.4375-0.13672 1.8125-0.40625 0.38281-0.26172 0.67969-0.73047 0.89062-1.4062l0.14062-0.42188z"/>
  </symbol>
  <symbol id="j" overflow="visible">
   <path d="m14.953-3.7188h-8.2188l-1.3125 3.7188h-5.2812l7.5625-20.406h6.2656l7.5625 20.406h-5.2812zm-6.9062-3.7812h5.5781l-2.7812-8.125z"/>
  </symbol>
  <symbol id="i" overflow="visible">
   <path d="m2.3594-21.281h4.8906v21.281h-4.8906z"/>
  </symbol>
  <symbol id="h" overflow="visible">
   <path d="m2.3594-15.312h4.8906v15.312h-4.8906zm0-5.9688h4.8906v4h-4.8906z"/>
  </symbol>
  <symbol id="e" overflow="visible">
   <path d="m17.75-9.3281v9.3281h-4.9219v-7.1406c0-1.3203-0.03125-2.2344-0.09375-2.7344s-0.16797-0.86719-0.3125-1.1094c-0.1875-0.3125-0.44922-0.55469-0.78125-0.73438-0.32422-0.17578-0.69531-0.26562-1.1094-0.26562-1.0234 0-1.8242 0.39844-2.4062 1.1875-0.58594 0.78125-0.875 1.8711-0.875 3.2656v7.5312h-4.8906v-15.312h4.8906v2.2344c0.73828-0.88281 1.5195-1.5391 2.3438-1.9688 0.83203-0.42578 1.75-0.64062 2.75-0.64062 1.7695 0 3.1133 0.54688 4.0312 1.6406 0.91406 1.0859 1.375 2.6562 1.375 4.7188z"/>
  </symbol>
  <symbol id="v" overflow="visible">
   <path d="m11.891-16.969c-1.6055 0-2.8516 0.59375-3.7344 1.7812-0.875 1.1875-1.3125 2.8555-1.3125 5 0 2.1484 0.4375 3.8125 1.3125 5 0.88281 1.1797 2.1289 1.7656 3.7344 1.7656 1.6133 0 2.8633-0.58594 3.75-1.7656 0.88281-1.1875 1.3281-2.8516 1.3281-5 0-2.1445-0.44531-3.8125-1.3281-5-0.88672-1.1875-2.1367-1.7812-3.75-1.7812zm0-3.8125c3.2812 0 5.8477 0.9375 7.7031 2.8125 1.8633 1.875 2.7969 4.4688 2.7969 7.7812 0 3.3047-0.93359 5.8906-2.7969 7.7656-1.8555 1.875-4.4219 2.8125-7.7031 2.8125-3.2734 0-5.8398-0.9375-7.7031-2.8125-1.8672-1.875-2.7969-4.4609-2.7969-7.7656 0-3.3125 0.92969-5.9062 2.7969-7.7812 1.8633-1.875 4.4297-2.8125 7.7031-2.8125z"/>
  </symbol>
  <symbol id="u" overflow="visible">
   <path d="m2.3594-21.281h4.8906v11.594l5.625-5.625h5.6875l-7.4688 7.0312 8.0625 8.2812h-5.9375l-5.9688-6.3906v6.3906h-4.8906z"/>
  </symbol>
  <symbol id="t" overflow="visible">
   <path d="m12.422-21.281v3.2188h-2.7031c-0.6875 0-1.1719 0.125-1.4531 0.375-0.27344 0.25-0.40625 0.6875-0.40625 1.3125v1.0625h4.1875v3.5h-4.1875v11.812h-4.8906v-11.812h-2.4375v-3.5h2.4375v-1.0625c0-1.6641 0.46094-2.8984 1.3906-3.7031 0.92578-0.80078 2.3672-1.2031 4.3281-1.2031z"/>
  </symbol>
  <symbol id="d" overflow="visible">
   <path d="m9.6406-12.188c-1.0859 0-1.9141 0.39062-2.4844 1.1719-0.57422 0.78125-0.85938 1.9062-0.85938 3.375s0.28516 2.5938 0.85938 3.375c0.57031 0.77344 1.3984 1.1562 2.4844 1.1562 1.0625 0 1.875-0.38281 2.4375-1.1562 0.57031-0.78125 0.85938-1.9062 0.85938-3.375s-0.28906-2.5938-0.85938-3.375c-0.5625-0.78125-1.375-1.1719-2.4375-1.1719zm0-3.5c2.6328 0 4.6914 0.71484 6.1719 2.1406 1.4766 1.418 2.2188 3.3867 2.2188 5.9062 0 2.5117-0.74219 4.4805-2.2188 5.9062-1.4805 1.418-3.5391 2.125-6.1719 2.125-2.6484 0-4.7148-0.70703-6.2031-2.125-1.4922-1.4258-2.2344-3.3945-2.2344-5.9062 0-2.5195 0.74219-4.4883 2.2344-5.9062 1.4883-1.4258 3.5547-2.1406 6.2031-2.1406z"/>
  </symbol>
  <symbol id="s" overflow="visible">
   <path d="m16.547-12.766c0.61328-0.94531 1.3477-1.6719 2.2031-2.1719 0.85156-0.5 1.7891-0.75 2.8125-0.75 1.7578 0 3.0977 0.54688 4.0156 1.6406 0.92578 1.0859 1.3906 2.6562 1.3906 4.7188v9.3281h-4.9219v-7.9844-0.35938c0.007813-0.13281 0.015625-0.32031 0.015625-0.5625 0-1.082-0.16406-1.8633-0.48438-2.3438-0.3125-0.48828-0.82422-0.73438-1.5312-0.73438-0.92969 0-1.6484 0.38672-2.1562 1.1562-0.51172 0.76172-0.77344 1.8672-0.78125 3.3125v7.5156h-4.9219v-7.9844c0-1.6953-0.14844-2.7852-0.4375-3.2656-0.29297-0.48828-0.8125-0.73438-1.5625-0.73438-0.9375 0-1.6641 0.38672-2.1719 1.1562-0.51172 0.76172-0.76562 1.8594-0.76562 3.2969v7.5312h-4.9219v-15.312h4.9219v2.2344c0.60156-0.86328 1.2891-1.5156 2.0625-1.9531 0.78125-0.4375 1.6406-0.65625 2.5781-0.65625 1.0625 0 2 0.25781 2.8125 0.76562 0.8125 0.51172 1.4258 1.2305 1.8438 2.1562z"/>
  </symbol>
  <symbol id="r" overflow="visible">
   <path d="m17.75-9.3281v9.3281h-4.9219v-7.1094c0-1.3438-0.03125-2.2656-0.09375-2.7656s-0.16797-0.86719-0.3125-1.1094c-0.1875-0.3125-0.44922-0.55469-0.78125-0.73438-0.32422-0.17578-0.69531-0.26562-1.1094-0.26562-1.0234 0-1.8242 0.39844-2.4062 1.1875-0.58594 0.78125-0.875 1.8711-0.875 3.2656v7.5312h-4.8906v-21.281h4.8906v8.2031c0.73828-0.88281 1.5195-1.5391 2.3438-1.9688 0.83203-0.42578 1.75-0.64062 2.75-0.64062 1.7695 0 3.1133 0.54688 4.0312 1.6406 0.91406 1.0859 1.375 2.6562 1.375 4.7188z"/>
  </symbol>
  <symbol id="q" overflow="visible">
   <path d="m2.5781-20.406h5.875l7.4219 14v-14h4.9844v20.406h-5.875l-7.4219-14v14h-4.9844z"/>
  </symbol>
  <symbol id="p" overflow="visible">
   <path d="m2.1875-5.9688v-9.3438h4.9219v1.5312c0 0.83594-0.007813 1.875-0.015625 3.125-0.011719 1.25-0.015625 2.0859-0.015625 2.5 0 1.2422 0.03125 2.1328 0.09375 2.6719 0.070313 0.54297 0.17969 0.93359 0.32812 1.1719 0.20703 0.32422 0.47266 0.57422 0.79688 0.75 0.32031 0.16797 0.69141 0.25 1.1094 0.25 1.0195 0 1.8203-0.39062 2.4062-1.1719 0.58203-0.78125 0.875-1.8672 0.875-3.2656v-7.5625h4.8906v15.312h-4.8906v-2.2188c-0.74219 0.89844-1.5234 1.5586-2.3438 1.9844-0.82422 0.41406-1.7344 0.625-2.7344 0.625-1.7617 0-3.1055-0.53906-4.0312-1.625-0.92969-1.082-1.3906-2.6602-1.3906-4.7344z"/>
  </symbol>
  <symbol id="o" overflow="visible">
   <path d="m2.5781-20.406h8.7344c2.5938 0 4.582 0.57812 5.9688 1.7344 1.3945 1.1484 2.0938 2.7891 2.0938 4.9219 0 2.1367-0.69922 3.7812-2.0938 4.9375-1.3867 1.1562-3.375 1.7344-5.9688 1.7344h-3.4844v7.0781h-5.25zm5.25 3.8125v5.7031h2.9219c1.0195 0 1.8047-0.25 2.3594-0.75 0.5625-0.5 0.84375-1.2031 0.84375-2.1094 0-0.91406-0.28125-1.6172-0.84375-2.1094-0.55469-0.48828-1.3398-0.73438-2.3594-0.73438z"/>
  </symbol>
  <symbol id="n" overflow="visible">
   <path d="m2.3594-15.312h4.8906v15.031c0 2.0508-0.49609 3.6172-1.4844 4.7031-0.98047 1.082-2.4062 1.625-4.2812 1.625h-2.4219v-3.2188h0.85938c0.92578 0 1.5625-0.21094 1.9062-0.625 0.35156-0.41797 0.53125-1.2461 0.53125-2.4844zm0-5.9688h4.8906v4h-4.8906z"/>
  </symbol>
  <symbol id="m" overflow="visible">
   <path d="m14.719-14.828v3.9844c-0.65625-0.45703-1.3242-0.79688-2-1.0156-0.66797-0.21875-1.3594-0.32812-2.0781-0.32812-1.3672 0-2.4336 0.40234-3.2031 1.2031-0.76172 0.79297-1.1406 1.9062-1.1406 3.3438 0 1.4297 0.37891 2.543 1.1406 3.3438 0.76953 0.79297 1.8359 1.1875 3.2031 1.1875 0.75781 0 1.4844-0.10938 2.1719-0.32812 0.6875-0.22656 1.3203-0.56641 1.9062-1.0156v4c-0.76172 0.28125-1.5391 0.48828-2.3281 0.625-0.78125 0.14453-1.5742 0.21875-2.375 0.21875-2.7617 0-4.9219-0.70703-6.4844-2.125-1.5547-1.4141-2.3281-3.3828-2.3281-5.9062 0-2.5312 0.77344-4.5039 2.3281-5.9219 1.5625-1.4141 3.7227-2.125 6.4844-2.125 0.80078 0 1.5938 0.074219 2.375 0.21875 0.78125 0.13672 1.5547 0.35156 2.3281 0.64062z"/>
  </symbol>
 </defs>
 <g>
  <path d="m396.11 165.02c7.168 2 12.184 6.4727 11.203 9.9922-0.98047 3.5234-7.5898 4.7578-14.758 2.7617-7.168-1.9961-12.184-6.4727-11.199-9.9922 0.98047-3.5234 7.5859-4.7578 14.754-2.7617"/>
  <path d="m317.6 168.76c0.98047 3.5195-4.0352 7.9961-11.203 9.9922s-13.773 0.76172-14.758-2.7617c-0.98047-3.5195 4.0352-7.9961 11.203-9.9922 7.168-1.9961 13.777-0.76172 14.758 2.7617"/>
  <path d="m368.41 224.49c-1.4609 1.2812-2.4688 3.0742-2.8047 4.9961-0.24219 1.3906-0.125 2.8828 0.60938 4.0898 1.3789 2.2617 3.9922 2.0039 6.2383 1.5117-1.6875 0.37109-3.6406-0.46094-4.2891-2.0547-0.375-0.91406-0.30859-1.9609 0.027343-2.8828 1.2109-3.3203 4.9766-4.4414 8.1602-3.4883 3.9883 1.1914 6.0039 5.5039 4.6875 9.4375-0.93359 2.8008-3.2578 4.5586-6.0469 5.1445-2.8398 0.59766-6.3672-0.0625-8.6523-1.8867-1.418-1.1328-2.3789-2.6992-3.6836-3.9414-1.3711-1.3086-3.1875-2.0391-5.0586-2.2852-1.3555-0.17969-2.4766-0.078125-3.3984 0.16406 0.089844-0.09375 0.19141-0.17188 0.28125-0.26953 1.6523-1.7578 4.168-3.8516 3.9297-6.5195-0.15234-1.707-1.2773-2.9102-2.6953-3.7422-1.5742-0.92578-3.5273-1.668-5.3711-1.668s-3.7969 0.74609-5.3711 1.668c-1.418 0.82812-2.543 2.0312-2.6953 3.7422-0.23438 2.6641 2.2773 4.7617 3.9297 6.5195 0.089843 0.09375 0.19141 0.17187 0.28125 0.26953-0.92578-0.24219-2.0391-0.33594-3.3984-0.16406-1.8711 0.24609-3.6836 0.97266-5.0586 2.2852-1.3047 1.2422-2.2695 2.8125-3.6836 3.9414-2.2852 1.8242-5.8125 2.4883-8.6523 1.8867-2.7891-0.58984-5.1133-2.3477-6.0469-5.1445-1.3164-3.9297 0.69922-8.2422 4.6875-9.4375 3.1797-0.95312 6.957 0.16797 8.1602 3.4883 0.33594 0.92578 0.40234 1.9766 0.027344 2.8828-0.65625 1.5977-2.6094 2.4258-4.2891 2.0547 2.2383 0.49219 4.8594 0.75 6.2383-1.5117 0.73438-1.2031 0.85156-2.6992 0.60938-4.0898-0.33594-1.9141-1.3438-3.707-2.8047-4.9961-4.4805-3.9258-11.855-2.1719-15.664 1.8633-5.8125 6.1641-3.5508 16.105 1.7461 21.828 3.3711 3.6406 8.1641 5.2852 13.047 5.3711 0.75 0.011719 1.5-0.011719 2.25-0.0625 3.3711-0.24609 6.7461-1.125 9.6094-2.9219 3.2695-2.0547 5.7734-5.3047 6.9258-8.9922h0.28125c1.1523 3.6836 3.6562 6.9336 6.9258 8.9922 2.8633 1.7969 6.2383 2.6758 9.6094 2.9219 0.75 0.054688 1.5 0.078125 2.25 0.0625 4.8828-0.085937 9.6758-1.7305 13.047-5.3711 5.2969-5.7227 7.5586-15.664 1.7461-21.828-3.7852-4.0391-11.16-5.7891-15.641-1.8633z"/>
  <path d="m559.93 298.6c-5.5938-12.594-37.207-33-47.246-39.246-3.8242-13.57-7.9844-26.848-12.02-39.652l-0.72656-2.3203c-13.777-43.754-31.516-86.527-52.734-127.12-0.66016-1.2656-1.3672-2.7422-2.1172-4.3164-4.3359-9.0625-9.7344-20.34-18.961-21.312-4.9102-0.52734-9.582 2.0039-13.82 7.5078-6.6289 8.6055-10.199 20.195-12.051 28.75-9.6758-2.1172-29.938-5.9531-49.895-5.9531-19.785 0-39.273 5.4648-48.965 8.6562-2.5078-10.93-7.1445-23.828-13.027-31.461-4.2383-5.5-8.8633-8.043-13.82-7.5078-9.2305 0.97266-14.629 12.254-18.961 21.312-0.75781 1.5781-1.457 3.0508-2.1172 4.3164-21.219 40.602-38.961 83.367-52.734 127.12l-0.72656 2.3203c-3.9805 12.656-8.0977 25.766-11.883 39.16-8.9531 5.5312-42.273 26.762-48.043 39.738-1.5742 3.5352-1.2422 7.125 0.90234 9.8516 3.1094 3.9492 10.305 5.2305 18.367 5.2305 5.5547 0 11.473-0.62891 16.801-1.3984-3.0391 20.25-4.0586 40.695-1.5117 60.859 4.7305 37.508 25.262 67.699 57.82 86.555 1.8086 11.891 5.3984 29.625 11.148 34.125 1.3711 1.0703 2.9805 1.6289 4.6328 1.6289 0.77344 0 1.5586-0.125 2.3281-0.37109 4.6992-1.5117 9.2344-8.8867 13.523-21.902 1.3906 0.42188 2.7383 0.88672 4.1562 1.2773 26.836 7.3516 54.746 9.2461 81.738 11.078l0.24219-3.5742 0.13281 3.5898 0.11328-3.2773 0.22266 3.2656c26.992-1.832 54.902-3.7305 81.738-11.078 4.2188-1.1523 8.2656-2.4961 12.234-3.9297 4.1445 12.129 8.5234 19.059 13.043 20.512 0.77344 0.24609 1.5508 0.37109 2.3281 0.37109 1.6445 0 3.2656-0.55469 4.6328-1.6289 5.8867-4.6016 9.5039-23.055 11.273-34.934 28.074-18.988 45.746-47.258 50.094-81.703 2.543-20.133 1.5352-40.551-1.5-60.77 5.1523 0.72656 10.797 1.3047 16.121 1.3047 8.0586 0 15.262-1.2812 18.367-5.2305 2.1445-2.7188 2.4727-6.3086 0.89844-9.8438zm-408.91 3.2656c4.0938-6.3438 18.977-17.652 32.762-26.879-2.1406 8.4727-4.043 17.035-5.6562 25.648-11.391 1.8438-22.676 2.3477-27.105 1.2305zm97.754 179.27c-1.2422-3.5742-2.6211-9.0312-3.8242-15.109 2.7656 1.25 5.6016 2.4258 8.5078 3.5273-1.5312 4.4961-3.2344 8.7031-4.6836 11.582zm210.75-3.9883c-1.3711-2.7031-2.9609-6.625-4.4258-10.848 2.7891-1.2422 5.5117-2.5586 8.1523-3.9492-1.1875 5.9922-2.5391 11.336-3.7266 14.797zm55.398-105.41c-5.6953 45.098-36.836 78.598-85.449 91.906-25.625 7.0156-52.82 8.8867-79.133 10.68-26.32-1.7852-53.512-3.6641-79.141-10.68-48.613-13.312-79.762-46.809-85.449-91.906-6.2617-49.578 9.5977-99.953 24.938-148.68l0.72656-2.3203c13.578-43.125 31.07-85.281 51.98-125.3 0.71875-1.3672 1.4844-2.9609 2.2969-4.6719 1.9219-4.0156 7.0273-14.688 10.035-15.008h0.035157c0.38672 0 1.7031 0.55859 3.7422 3.207 5.6016 7.2695 10.426 22.398 12.137 32.957l1.1094 6.8672 6.4727-2.5469c0.25781-0.10156 25.977-10.109 51.152-10.109 25.543 0 52.645 6.8867 52.914 6.957l5.9453 1.5273 0.98047-6.0586c1.9883-12.332 5.9922-23.117 10.98-29.59 2.1094-2.7422 3.4102-3.2461 3.7734-3.207 3 0.32031 8.1094 10.992 10.035 15.008 0.81641 1.707 1.5781 3.3047 2.2969 4.6719 20.91 40.012 38.398 82.168 51.973 125.29l0.72656 2.3203c15.316 48.727 31.176 99.113 24.922 148.68zm7.6406-70.988c-1.5859-8.4727-3.4453-16.902-5.543-25.234 13.473 9.0781 27.789 20.02 31.938 26.355-4.3555 1.0859-15.262 0.62891-26.395-1.1211z"/>
  <path d="m401.86 200.3c-2.2578 0-4.082-1.8242-4.082-4.082 0-1.5625 0.90625-2.8711 2.1953-3.5625-1.625-1.0586-3.5547-1.6914-5.6328-1.6914-5.6992 0-10.328 4.6211-10.328 10.328 0 5.6992 4.625 10.328 10.328 10.328 5.6992 0 10.328-4.625 10.328-10.328 0-0.68359-0.074219-1.3477-0.20312-1.9922-0.71484 0.59766-1.6055 1-2.6055 1z"/>
  <path d="m314.51 199.3c-0.71094 0.59766-1.5977 1.0039-2.5977 1.0039-2.2578 0-4.082-1.8242-4.082-4.082 0-1.5625 0.90625-2.8711 2.1953-3.5625-1.625-1.0586-3.5547-1.6914-5.6328-1.6914-5.6992 0-10.328 4.6211-10.328 10.328 0 5.6992 4.625 10.328 10.328 10.328 5.6992 0 10.328-4.625 10.328-10.328-0.007812-0.6875-0.082031-1.3516-0.21094-1.9961z"/>
  <use x="70" y="644" xlink:href="#w"/>
  <use x="90.550781" y="644" xlink:href="#c"/>
  <use x="104.359375" y="644" xlink:href="#a"/>
  <use x="123.347656" y="644" xlink:href="#g"/>
  <use x="142.242188" y="644" xlink:href="#b"/>
  <use x="155.628906" y="644" xlink:href="#a"/>
  <use x="174.617188" y="644" xlink:href="#l"/>
  <use x="204.410156" y="644" xlink:href="#k"/>
  <use x="224.453125" y="644" xlink:href="#f"/>
  <use x="252.453125" y="644" xlink:href="#j"/>
  <use x="274.121094" y="644" xlink:href="#i"/>
  <use x="283.71875" y="644" xlink:href="#h"/>
  <use x="293.316406" y="644" xlink:href="#e"/>
  <use x="313.25" y="644" xlink:href="#g"/>
  <use x="341.890625" y="644" xlink:href="#v"/>
  <use x="365.695312" y="644" xlink:href="#i"/>
  <use x="375.292969" y="644" xlink:href="#a"/>
  <use x="394.28125" y="644" xlink:href="#f"/>
  <use x="412.535156" y="644" xlink:href="#e"/>
  <use x="432.46875" y="644" xlink:href="#h"/>
  <use x="442.066406" y="644" xlink:href="#u"/>
  <use x="70" y="672" xlink:href="#t"/>
  <use x="82.183594" y="672" xlink:href="#c"/>
  <use x="95.992188" y="672" xlink:href="#d"/>
  <use x="115.226562" y="672" xlink:href="#s"/>
  <use x="154.152344" y="672" xlink:href="#b"/>
  <use x="167.535156" y="672" xlink:href="#r"/>
  <use x="187.46875" y="672" xlink:href="#a"/>
  <use x="216.207031" y="672" xlink:href="#q"/>
  <use x="239.640625" y="672" xlink:href="#d"/>
  <use x="258.878906" y="672" xlink:href="#p"/>
  <use x="278.8125" y="672" xlink:href="#e"/>
  <use x="308.492188" y="672" xlink:href="#o"/>
  <use x="329.015625" y="672" xlink:href="#c"/>
  <use x="342.820312" y="672" xlink:href="#d"/>
  <use x="362.058594" y="672" xlink:href="#n"/>
  <use x="371.65625" y="672" xlink:href="#a"/>
  <use x="390.648438" y="672" xlink:href="#m"/>
  <use x="407.242188" y="672" xlink:href="#b"/>
 </g>
</svg>
