<?xml version="1.0" encoding="UTF-8"?>
<svg width="700pt" height="700pt" version="1.1" viewBox="0 0 700 700" xmlns="http://www.w3.org/2000/svg" xmlns:xlink="http://www.w3.org/1999/xlink">
 <defs>
  <symbol id="s" overflow="visible">
   <path d="m18.766-1.125c-0.96875 0.5-1.9805 0.875-3.0312 1.125-1.043 0.25781-2.1367 0.39062-3.2812 0.39062-3.3984 0-6.0898-0.94531-8.0781-2.8438-1.9922-1.9062-2.9844-4.4844-2.9844-7.7344 0-3.2578 0.99219-5.8359 2.9844-7.7344 1.9883-1.9062 4.6797-2.8594 8.0781-2.8594 1.1445 0 2.2383 0.13281 3.2812 0.39062 1.0508 0.25 2.0625 0.625 3.0312 1.125v4.2188c-0.98047-0.65625-1.9453-1.1406-2.8906-1.4531-0.94922-0.3125-1.9492-0.46875-3-0.46875-1.875 0-3.3516 0.60547-4.4219 1.8125-1.0742 1.1992-1.6094 2.8555-1.6094 4.9688 0 2.1055 0.53516 3.7617 1.6094 4.9688 1.0703 1.1992 2.5469 1.7969 4.4219 1.7969 1.0508 0 2.0508-0.14844 3-0.45312 0.94531-0.3125 1.9102-0.80078 2.8906-1.4688z"/>
  </symbol>
  <symbol id="b" overflow="visible">
   <path d="m13.734-11.141c-0.4375-0.19531-0.87109-0.34375-1.2969-0.4375-0.41797-0.10156-0.83984-0.15625-1.2656-0.15625-1.2617 0-2.2305 0.40625-2.9062 1.2188-0.67969 0.80469-1.0156 1.9531-1.0156 3.4531v7.0625h-4.8906v-15.312h4.8906v2.5156c0.625-1 1.3438-1.7266 2.1562-2.1875 0.82031-0.46875 1.8008-0.70312 2.9375-0.70312 0.16406 0 0.34375 0.011719 0.53125 0.03125 0.19531 0.011719 0.47656 0.039062 0.84375 0.078125z"/>
  </symbol>
  <symbol id="a" overflow="visible">
   <path d="m17.641-7.7031v1.4062h-11.453c0.125 1.1484 0.53906 2.0078 1.25 2.5781 0.70703 0.57422 1.7031 0.85938 2.9844 0.85938 1.0312 0 2.082-0.14844 3.1562-0.45312 1.082-0.3125 2.1914-0.77344 3.3281-1.3906v3.7656c-1.1562 0.4375-2.3125 0.76562-3.4688 0.98438-1.1562 0.22656-2.3125 0.34375-3.4688 0.34375-2.7734 0-4.9297-0.70312-6.4688-2.1094-1.5312-1.4062-2.2969-3.3789-2.2969-5.9219 0-2.5 0.75391-4.4609 2.2656-5.8906 1.5078-1.4375 3.582-2.1562 6.2188-2.1562 2.4062 0 4.332 0.73047 5.7812 2.1875 1.4453 1.4492 2.1719 3.3828 2.1719 5.7969zm-5.0312-1.625c0-0.92578-0.27344-1.6719-0.8125-2.2344-0.54297-0.57031-1.25-0.85938-2.125-0.85938-0.94922 0-1.7188 0.26562-2.3125 0.79688s-0.96484 1.2969-1.1094 2.2969z"/>
  </symbol>
  <symbol id="d" overflow="visible">
   <path d="m9.2188-6.8906c-1.0234 0-1.793 0.17188-2.3125 0.51562-0.51172 0.34375-0.76562 0.85547-0.76562 1.5312 0 0.625 0.20703 1.1172 0.625 1.4688 0.41406 0.34375 0.98828 0.51562 1.7188 0.51562 0.92578 0 1.7031-0.32812 2.3281-0.98438 0.63281-0.66406 0.95312-1.4922 0.95312-2.4844v-0.5625zm7.4688-1.8438v8.7344h-4.9219v-2.2656c-0.65625 0.92969-1.3984 1.6055-2.2188 2.0312-0.82422 0.41406-1.8242 0.625-3 0.625-1.5859 0-2.8711-0.45703-3.8594-1.375-0.99219-0.92578-1.4844-2.1289-1.4844-3.6094 0-1.7891 0.61328-3.1016 1.8438-3.9375 1.2383-0.84375 3.1797-1.2656 5.8281-1.2656h2.8906v-0.39062c0-0.76953-0.30859-1.332-0.92188-1.6875-0.61719-0.36328-1.5703-0.54688-2.8594-0.54688-1.0547 0-2.0312 0.10547-2.9375 0.3125-0.89844 0.21094-1.7305 0.52344-2.5 0.9375v-3.7344c1.0391-0.25 2.0859-0.44141 3.1406-0.57812 1.0625-0.13281 2.125-0.20312 3.1875-0.20312 2.7578 0 4.75 0.54688 5.9688 1.6406 1.2266 1.0859 1.8438 2.8555 1.8438 5.3125z"/>
  </symbol>
  <symbol id="c" overflow="visible">
   <path d="m7.7031-19.656v4.3438h5.0469v3.5h-5.0469v6.5c0 0.71094 0.14062 1.1875 0.42188 1.4375s0.83594 0.375 1.6719 0.375h2.5156v3.5h-4.1875c-1.9375 0-3.3125-0.39844-4.125-1.2031-0.80469-0.8125-1.2031-2.1797-1.2031-4.1094v-6.5h-2.4219v-3.5h2.4219v-4.3438z"/>
  </symbol>
  <symbol id="f" overflow="visible">
   <path d="m12.766-13.078v-8.2031h4.9219v21.281h-4.9219v-2.2188c-0.66797 0.90625-1.4062 1.5703-2.2188 1.9844s-1.7578 0.625-2.8281 0.625c-1.8867 0-3.4336-0.75-4.6406-2.25-1.2109-1.5-1.8125-3.4258-1.8125-5.7812 0-2.3633 0.60156-4.2969 1.8125-5.7969 1.207-1.5 2.7539-2.25 4.6406-2.25 1.0625 0 2 0.21484 2.8125 0.64062 0.82031 0.42969 1.5664 1.0859 2.2344 1.9688zm-3.2188 9.9219c1.0391 0 1.8359-0.37891 2.3906-1.1406 0.55078-0.76953 0.82812-1.8828 0.82812-3.3438 0-1.457-0.27734-2.5664-0.82812-3.3281-0.55469-0.76953-1.3516-1.1562-2.3906-1.1562-1.043 0-1.8398 0.38672-2.3906 1.1562-0.55469 0.76172-0.82812 1.8711-0.82812 3.3281 0 1.4609 0.27344 2.5742 0.82812 3.3438 0.55078 0.76172 1.3477 1.1406 2.3906 1.1406z"/>
  </symbol>
  <symbol id="j" overflow="visible">
   <path d="m10.5-3.1562c1.0508 0 1.8516-0.37891 2.4062-1.1406 0.55078-0.76953 0.82812-1.8828 0.82812-3.3438 0-1.457-0.27734-2.5664-0.82812-3.3281-0.55469-0.76953-1.3555-1.1562-2.4062-1.1562-1.0547 0-1.8594 0.38672-2.4219 1.1562-0.55469 0.77344-0.82812 1.8828-0.82812 3.3281 0 1.4492 0.27344 2.5586 0.82812 3.3281 0.5625 0.77344 1.3672 1.1562 2.4219 1.1562zm-3.25-9.9219c0.67578-0.88281 1.4219-1.5391 2.2344-1.9688 0.82031-0.42578 1.7656-0.64062 2.8281-0.64062 1.8945 0 3.4453 0.75 4.6562 2.25 1.207 1.5 1.8125 3.4336 1.8125 5.7969 0 2.3555-0.60547 4.2812-1.8125 5.7812-1.2109 1.5-2.7617 2.25-4.6562 2.25-1.0625 0-2.0078-0.21094-2.8281-0.625-0.8125-0.42578-1.5586-1.0859-2.2344-1.9844v2.2188h-4.8906v-21.281h4.8906z"/>
  </symbol>
  <symbol id="i" overflow="visible">
   <path d="m0.34375-15.312h4.8906l4.125 10.391 3.5-10.391h4.8906l-6.4375 16.766c-0.64844 1.6953-1.4023 2.8828-2.2656 3.5625-0.86719 0.6875-2 1.0312-3.4062 1.0312h-2.8438v-3.2188h1.5312c0.83203 0 1.4375-0.13672 1.8125-0.40625 0.38281-0.26172 0.67969-0.73047 0.89062-1.4062l0.14062-0.42188z"/>
  </symbol>
  <symbol id="h" overflow="visible">
   <path d="m14.312-14.828v3.7188c-1.043-0.4375-2.0547-0.76562-3.0312-0.98438-0.98047-0.21875-1.9023-0.32812-2.7656-0.32812-0.92969 0-1.6211 0.11719-2.0781 0.34375-0.44922 0.23047-0.67188 0.58984-0.67188 1.0781 0 0.38672 0.17188 0.68359 0.51562 0.89062 0.34375 0.21094 0.95703 0.36719 1.8438 0.46875l0.85938 0.125c2.5078 0.32422 4.1953 0.85156 5.0625 1.5781 0.86328 0.73047 1.2969 1.8711 1.2969 3.4219 0 1.6367-0.60547 2.8672-1.8125 3.6875-1.1992 0.8125-2.9922 1.2188-5.375 1.2188-1.0234 0-2.0742-0.078125-3.1562-0.23438-1.0742-0.15625-2.1797-0.39453-3.3125-0.71875v-3.7188c0.96875 0.48047 1.9609 0.83984 2.9844 1.0781 1.0312 0.23047 2.0781 0.34375 3.1406 0.34375 0.95703 0 1.6758-0.12891 2.1562-0.39062 0.47656-0.26953 0.71875-0.66406 0.71875-1.1875 0-0.4375-0.16797-0.75781-0.5-0.96875-0.33594-0.21875-0.99609-0.38281-1.9844-0.5l-0.85938-0.10938c-2.1797-0.26953-3.7031-0.77344-4.5781-1.5156-0.875-0.73828-1.3125-1.8594-1.3125-3.3594 0-1.625 0.55078-2.8281 1.6562-3.6094 1.1133-0.78906 2.8203-1.1875 5.125-1.1875 0.89453 0 1.8359 0.074219 2.8281 0.21875 1 0.13672 2.082 0.35156 3.25 0.64062z"/>
  </symbol>
  <symbol id="g" overflow="visible">
   <path d="m17.75-9.3281v9.3281h-4.9219v-7.1406c0-1.3203-0.03125-2.2344-0.09375-2.7344s-0.16797-0.86719-0.3125-1.1094c-0.1875-0.3125-0.44922-0.55469-0.78125-0.73438-0.32422-0.17578-0.69531-0.26562-1.1094-0.26562-1.0234 0-1.8242 0.39844-2.4062 1.1875-0.58594 0.78125-0.875 1.8711-0.875 3.2656v7.5312h-4.8906v-15.312h4.8906v2.2344c0.73828-0.88281 1.5195-1.5391 2.3438-1.9688 0.83203-0.42578 1.75-0.64062 2.75-0.64062 1.7695 0 3.1133 0.54688 4.0312 1.6406 0.91406 1.0859 1.375 2.6562 1.375 4.7188z"/>
  </symbol>
  <symbol id="r" overflow="visible">
   <path d="m12.422-21.281v3.2188h-2.7031c-0.6875 0-1.1719 0.125-1.4531 0.375-0.27344 0.25-0.40625 0.6875-0.40625 1.3125v1.0625h4.1875v3.5h-4.1875v11.812h-4.8906v-11.812h-2.4375v-3.5h2.4375v-1.0625c0-1.6641 0.46094-2.8984 1.3906-3.7031 0.92578-0.80078 2.3672-1.2031 4.3281-1.2031z"/>
  </symbol>
  <symbol id="e" overflow="visible">
   <path d="m9.6406-12.188c-1.0859 0-1.9141 0.39062-2.4844 1.1719-0.57422 0.78125-0.85938 1.9062-0.85938 3.375s0.28516 2.5938 0.85938 3.375c0.57031 0.77344 1.3984 1.1562 2.4844 1.1562 1.0625 0 1.875-0.38281 2.4375-1.1562 0.57031-0.78125 0.85938-1.9062 0.85938-3.375s-0.28906-2.5938-0.85938-3.375c-0.5625-0.78125-1.375-1.1719-2.4375-1.1719zm0-3.5c2.6328 0 4.6914 0.71484 6.1719 2.1406 1.4766 1.418 2.2188 3.3867 2.2188 5.9062 0 2.5117-0.74219 4.4805-2.2188 5.9062-1.4805 1.418-3.5391 2.125-6.1719 2.125-2.6484 0-4.7148-0.70703-6.2031-2.125-1.4922-1.4258-2.2344-3.3945-2.2344-5.9062 0-2.5195 0.74219-4.4883 2.2344-5.9062 1.4883-1.4258 3.5547-2.1406 6.2031-2.1406z"/>
  </symbol>
  <symbol id="q" overflow="visible">
   <path d="m16.547-12.766c0.61328-0.94531 1.3477-1.6719 2.2031-2.1719 0.85156-0.5 1.7891-0.75 2.8125-0.75 1.7578 0 3.0977 0.54688 4.0156 1.6406 0.92578 1.0859 1.3906 2.6562 1.3906 4.7188v9.3281h-4.9219v-7.9844-0.35938c0.007813-0.13281 0.015625-0.32031 0.015625-0.5625 0-1.082-0.16406-1.8633-0.48438-2.3438-0.3125-0.48828-0.82422-0.73438-1.5312-0.73438-0.92969 0-1.6484 0.38672-2.1562 1.1562-0.51172 0.76172-0.77344 1.8672-0.78125 3.3125v7.5156h-4.9219v-7.9844c0-1.6953-0.14844-2.7852-0.4375-3.2656-0.29297-0.48828-0.8125-0.73438-1.5625-0.73438-0.9375 0-1.6641 0.38672-2.1719 1.1562-0.51172 0.76172-0.76562 1.8594-0.76562 3.2969v7.5312h-4.9219v-15.312h4.9219v2.2344c0.60156-0.86328 1.2891-1.5156 2.0625-1.9531 0.78125-0.4375 1.6406-0.65625 2.5781-0.65625 1.0625 0 2 0.25781 2.8125 0.76562 0.8125 0.51172 1.4258 1.2305 1.8438 2.1562z"/>
  </symbol>
  <symbol id="p" overflow="visible">
   <path d="m17.75-9.3281v9.3281h-4.9219v-7.1094c0-1.3438-0.03125-2.2656-0.09375-2.7656s-0.16797-0.86719-0.3125-1.1094c-0.1875-0.3125-0.44922-0.55469-0.78125-0.73438-0.32422-0.17578-0.69531-0.26562-1.1094-0.26562-1.0234 0-1.8242 0.39844-2.4062 1.1875-0.58594 0.78125-0.875 1.8711-0.875 3.2656v7.5312h-4.8906v-21.281h4.8906v8.2031c0.73828-0.88281 1.5195-1.5391 2.3438-1.9688 0.83203-0.42578 1.75-0.64062 2.75-0.64062 1.7695 0 3.1133 0.54688 4.0312 1.6406 0.91406 1.0859 1.375 2.6562 1.375 4.7188z"/>
  </symbol>
  <symbol id="o" overflow="visible">
   <path d="m2.5781-20.406h5.875l7.4219 14v-14h4.9844v20.406h-5.875l-7.4219-14v14h-4.9844z"/>
  </symbol>
  <symbol id="n" overflow="visible">
   <path d="m2.1875-5.9688v-9.3438h4.9219v1.5312c0 0.83594-0.007813 1.875-0.015625 3.125-0.011719 1.25-0.015625 2.0859-0.015625 2.5 0 1.2422 0.03125 2.1328 0.09375 2.6719 0.070313 0.54297 0.17969 0.93359 0.32812 1.1719 0.20703 0.32422 0.47266 0.57422 0.79688 0.75 0.32031 0.16797 0.69141 0.25 1.1094 0.25 1.0195 0 1.8203-0.39062 2.4062-1.1719 0.58203-0.78125 0.875-1.8672 0.875-3.2656v-7.5625h4.8906v15.312h-4.8906v-2.2188c-0.74219 0.89844-1.5234 1.5586-2.3438 1.9844-0.82422 0.41406-1.7344 0.625-2.7344 0.625-1.7617 0-3.1055-0.53906-4.0312-1.625-0.92969-1.082-1.3906-2.6602-1.3906-4.7344z"/>
  </symbol>
  <symbol id="m" overflow="visible">
   <path d="m2.5781-20.406h8.7344c2.5938 0 4.582 0.57812 5.9688 1.7344 1.3945 1.1484 2.0938 2.7891 2.0938 4.9219 0 2.1367-0.69922 3.7812-2.0938 4.9375-1.3867 1.1562-3.375 1.7344-5.9688 1.7344h-3.4844v7.0781h-5.25zm5.25 3.8125v5.7031h2.9219c1.0195 0 1.8047-0.25 2.3594-0.75 0.5625-0.5 0.84375-1.2031 0.84375-2.1094 0-0.91406-0.28125-1.6172-0.84375-2.1094-0.55469-0.48828-1.3398-0.73438-2.3594-0.73438z"/>
  </symbol>
  <symbol id="l" overflow="visible">
   <path d="m2.3594-15.312h4.8906v15.031c0 2.0508-0.49609 3.6172-1.4844 4.7031-0.98047 1.082-2.4062 1.625-4.2812 1.625h-2.4219v-3.2188h0.85938c0.92578 0 1.5625-0.21094 1.9062-0.625 0.35156-0.41797 0.53125-1.2461 0.53125-2.4844zm0-5.9688h4.8906v4h-4.8906z"/>
  </symbol>
  <symbol id="k" overflow="visible">
   <path d="m14.719-14.828v3.9844c-0.65625-0.45703-1.3242-0.79688-2-1.0156-0.66797-0.21875-1.3594-0.32812-2.0781-0.32812-1.3672 0-2.4336 0.40234-3.2031 1.2031-0.76172 0.79297-1.1406 1.9062-1.1406 3.3438 0 1.4297 0.37891 2.543 1.1406 3.3438 0.76953 0.79297 1.8359 1.1875 3.2031 1.1875 0.75781 0 1.4844-0.10938 2.1719-0.32812 0.6875-0.22656 1.3203-0.56641 1.9062-1.0156v4c-0.76172 0.28125-1.5391 0.48828-2.3281 0.625-0.78125 0.14453-1.5742 0.21875-2.375 0.21875-2.7617 0-4.9219-0.70703-6.4844-2.125-1.5547-1.4141-2.3281-3.3828-2.3281-5.9062 0-2.5312 0.77344-4.5039 2.3281-5.9219 1.5625-1.4141 3.7227-2.125 6.4844-2.125 0.80078 0 1.5938 0.074219 2.375 0.21875 0.78125 0.13672 1.5547 0.35156 2.3281 0.64062z"/>
  </symbol>
 </defs>
 <g>
  <path d="m231.21 0.011719c-10.336 1.4688-16.742 9.2188-22.574 14.348-2.0703-8.5703-6.5664-14.074-15.398-14.172-13.484 0.71094-19.082 10.336-24.496 20.297-8.1758-5.6641-15.711-3.0234-22.223 3.6758-5.3594 7.2031-6.6875 15.906-7.6992 23.973-9.168 2.6133-17.121 9.2305-19.422 17.848-1.8477 7.3867 0.20312 13.934 3.3242 20.297-9.6562 6.8281-18.504 15-26.949 23.445-3.1914 3.0898-4.2617 8.1758-2.5781 12.289s6.0078 6.9922 10.453 6.957c12.605 0 18.66 1.2109 24.324 2.625-3.6055 9.3242-7.5234 19.52-7.5234 30.969 0.74609 28.715 21.02 40.012 44.621 43.219-0.19922 10.227-3.043 19.957-8.0508 32.195-6.2812 15.348-14.172 34.234-14.172 58.965 0 34.867 18.176 74.348 47.07 106.21 13.465 14.844 29.547 27.922 47.422 37.793l-8.3984 10.496c-20.773-9.2109-41.207-14.848-60.895-19.77-5.0664-1.3281-10.891 1.4453-13.047 6.2188-2.1562 4.7695-0.39453 10.977 3.9492 13.902 11.824 7.8828 23.371 16.168 34.648 25.547-12.184 4.543-23.094 9.6211-34.648 17.32-4.6523 2.7852-6.6875 9.2422-4.4688 14.191 2.2188 4.9492 8.3906 7.7266 13.566 6.1055 22.125-5.5312 37.43-10.371 57.047-10.672 11.062 2.9922 22.309 13.734 44.27 35.695 3.1094 3.0742 8.1055 4.0547 12.148 2.3867 4.043-1.668 6.8906-5.8867 6.9258-10.262 0-14.762-6.2891-27.617-13.648-39.719 4.1016-1.1523 7.375-4.8398 8.0352-9.0508 0.66016-4.2109-1.332-8.7188-4.8867-11.07l-7.875-5.25 6.4727-11.023c9.2812 2.0664 18.848 3.3242 28.699 3.3242 22.582 0 47.199-1.6133 71.57-5.7734l-3.5 34.645c-24.484 1.2344-45.73 5.7891-65.27 10.672-5.2266 1.3438-9.0039 6.9023-8.3242 12.258 0.67969 5.3555 5.7266 9.793 11.125 9.7891 16.27 0 31.086 0.73438 43.922 2.625-3.1758 5.4922-6.5352 11.898-9.8008 21.695-1.6523 4.7539 0.38281 10.523 4.6602 13.188 4.2734 2.6602 10.352 1.9453 13.891-1.6367 14.941-14.938 20.992-20.59 33.422-29.219 19.176 5.0039 35.082 9.9414 50.395 15.047 4.7305 1.5156 10.367-0.57812 12.965-4.8125 2.5977-4.2344 1.9062-10.207-1.5898-13.734-8.0938-8.0938-18.73-15.297-30.098-21.52 0.23828-0.15625 0.28125-0.18359 0.52344-0.35156 3.9375-2.668 5.8203-8.0195 4.4219-12.566-1.3984-4.5469-5.9688-7.9141-10.723-7.9062h-9.9727l3.6758-37.617c8.25-2.5859 16.355-5.5078 24.148-8.9219 39.895-17.496 72.734-48.273 81.367-95.359 17.875-4.3984 37.699-5.9141 52.32-15.57 2.1289-1.8164 5.25-5.1328 5.25-10.5 0-4.4883-1.9688-7.9102-4.1992-10.672 9.4414-6.2773 17.793-13.004 25.371-20.473 4.3359-3.9883 5.8594-9.4297 6.8242-13.648 0-5.1328-3.0039-9.7461-5.5977-12.074-1.8906-1.6953-3.5664-2.2891-5.25-3.1484 6.0156-6.7812 10.75-16.262 10.848-23.969 0-5.8633-5.3359-11.195-11.199-11.199h-5.25c3.457-6.2969 5.332-13.516 6.6484-19.945 0.52344-4.5664 0.63281-10.738-4.7227-16.098-5.7227-4.5312-11.73-2.918-17.848-1.3984 2.2812-6.6719 4.25-14.02 5.4258-20.473 0.66016-4.8828 1.8633-11.082-4.375-17.32-2.082-2.0156-4.9766-3.1719-7.875-3.1484-6.332 0-10.082 2.0312-13.648 4.1992-1.7461-11.117-1.8203-23.078-6.8242-32.195-3.2422-5.7461-10.789-11.199-18.723-11.199-6.4531 0-10.715 2.8789-14.348 5.9492-13.062 12.465-22.941 29.773-30.973 43.566-13.176 22.68-26.852 48.012-38.672 66.664-24.836-5.3984-57.324-13.434-89.418-10.148-15.688-25.398-31.332-46.844-46.723-67.363-11.07-26.812-27.539-48.852-47.945-69.988 4.7266-13.566 10.551-33.801 1.5742-43.918-6.6133-5.0273-14.801-2.7617-21.875-1.3984 6.5664-11.531 0.84766-24.711-9.625-24.316zm11.199 81.887c21.184 21.352 36.539 42 46.895 67.887 0.34766 0.93359 0.82031 1.8164 1.3984 2.625 10.621 14.16 21.07 28.402 31.496 43.742-6.5508 1.0078-11.234 5.043-11.375 12.598l3.3242 27.121-16.625-5.5977c-6.7656-2.2266-14.832 3.7266-14.699 10.848v5.0742l-34.648-15.574c-6.8125-3.0273-15.809 2.8672-15.75 10.324v5.5977l-26.949-20.297c-6.4648-4.7852-17.414 0.37109-17.848 8.3984l-4.0234-3.3242c3.1797-9.4102 5.2617-19.508 4.5508-30.617 13.762-13.711 19.531-33.273 13.648-50.914-5.0508-15.156-18.695-27.496-38.848-33.77 1.3281-2.7227 2.2734-5.7461 2.2734-9.4492-0.003906-1.7539-0.42578-3.5117-1.2266-5.0742 0 0-2.9258-5.7773-8.75-11.898 16.355-13.836 30.824-21.457 43.047-22.395 16.051-1.1523 33.77 5.7969 44.098 14.695zm-43.57 2.2734c-9.2773 0-16.797 6.2656-16.797 13.996s7.5195 13.996 16.797 13.996c9.2773 0 16.797-6.2656 16.797-13.996s-7.5195-13.996-16.797-13.996zm-5.5977 11.199c3.0938 0 5.5977 2.5078 5.5977 5.5977 0 3.0938-2.5078 5.5977-5.5977 5.5977-3.0938 0-5.5977-2.5078-5.5977-5.5977 0-3.0938 2.5078-5.5977 5.5977-5.5977zm335.45 29.395c4.8086 13.043 2.8516 29.363 6.6484 41.293 2.0117 6.125 10.012 9.4141 15.75 6.4727 1.5938-0.79688 2.7188-1.582 4.1992-2.4492-2.8711 9.1055-6.8203 19.75-8.9258 29.219-1.6914 7.8711 7.5547 15.719 15.047 12.773 3.582-1.4336 7-3.0703 10.5-4.7227-2.4375 6.0156-5.5039 12.582-7.875 17.32-3.4492 6.7891 2.3594 16.266 9.9727 16.273h4.5508c-2.0625 2.8789-3.6602 5.5859-6.8242 8.75-4.7539 4.6328-3.9375 13.621 1.5742 17.32 3.0117 2.0078 5.0195 2.5664 7.3477 3.5-8.8555 8.4102-20.121 16.133-29.746 22.57-6.4258 5.1992-5.7227 12.953-1.2266 17.676-13.285 3.6602-27.832 6.4062-39.547 8.75-4.5859 0.91406-8.3555 4.9844-8.9258 9.625-5.1055 43.391-32.031 69.062-69.645 85.559-37.613 16.496-85.34 22.223-126.34 22.223-38.016 0-73.168-20.484-98.867-48.816-25.699-28.336-41.121-64.441-41.121-91.164 0-17.109 4.5742-30.43 9.8008-43.566l22.223 18.547c3.4531 2.8281 8.6562 3.2891 12.551 1.1172 3.8945-2.1719 6.2383-6.8438 5.6445-11.266l21.523 16.098c3.3008 2.4375 7.9883 2.8398 11.656 1.0039 3.6719-1.8359 6.1602-5.8242 6.1914-9.9258v-10.848l34.996 15.746c6.8125 3.0273 15.809-2.8672 15.75-10.324l-0.17578-7.1719 18.723 6.3008c7.1133 2.3945 15.559-4.4414 14.699-11.898 0.6875-9.9961 1.0234-26.621 0.875-27.469 3.0898 4.8359 7.4023 6.75 12.25 6.3008 29.816-4.9688 67.75 5.2539 96.594 11.023 4.3203 0.88672 9.0898-1.0625 11.551-4.7227 13.68-20.52 29.008-49.848 43.047-74.012 8.0977-13.219 15.109-26.27 25.547-37.094zm-248.3 159.57c-23.621 14.805-31.254 43.285-27.473 63.863 5.0703 24.508 25.656 47.355 59.145 52.141 32.68 1.6875 61.941-4.1445 87.844-11.898 13.77-4.2227 25.969-9.1641 35.348-15.398 9.5547-6.7188 17.75-17.477 15.223-28.52-4.0508-11.309-12.781-15.527-22.922-18.023-19.816-2.4922-38.262 1.293-57.395 1.75-8.0273 0.16406-13.926-1.6406-13.824-1.5742-4.5781-3.0508-15.602-17.176-27.473-29.047-5.9336-5.9336-12.414-11.52-20.648-14.871-9.7422-3.3086-18.965-3.1836-27.824 1.5742z"/>
  <use x="70" y="644" xlink:href="#s"/>
  <use x="90.550781" y="644" xlink:href="#b"/>
  <use x="104.359375" y="644" xlink:href="#a"/>
  <use x="123.347656" y="644" xlink:href="#d"/>
  <use x="142.242188" y="644" xlink:href="#c"/>
  <use x="155.628906" y="644" xlink:href="#a"/>
  <use x="174.617188" y="644" xlink:href="#f"/>
  <use x="204.410156" y="644" xlink:href="#j"/>
  <use x="224.453125" y="644" xlink:href="#i"/>
  <use x="252.453125" y="644" xlink:href="#h"/>
  <use x="269.117188" y="644" xlink:href="#d"/>
  <use x="288.011719" y="644" xlink:href="#g"/>
  <use x="307.945312" y="644" xlink:href="#f"/>
  <use x="327.988281" y="644" xlink:href="#b"/>
  <use x="341.796875" y="644" xlink:href="#d"/>
  <use x="70" y="672" xlink:href="#r"/>
  <use x="82.183594" y="672" xlink:href="#b"/>
  <use x="95.992188" y="672" xlink:href="#e"/>
  <use x="115.226562" y="672" xlink:href="#q"/>
  <use x="154.152344" y="672" xlink:href="#c"/>
  <use x="167.535156" y="672" xlink:href="#p"/>
  <use x="187.46875" y="672" xlink:href="#a"/>
  <use x="216.207031" y="672" xlink:href="#o"/>
  <use x="239.640625" y="672" xlink:href="#e"/>
  <use x="258.878906" y="672" xlink:href="#n"/>
  <use x="278.8125" y="672" xlink:href="#g"/>
  <use x="308.492188" y="672" xlink:href="#m"/>
  <use x="329.015625" y="672" xlink:href="#b"/>
  <use x="342.820312" y="672" xlink:href="#e"/>
  <use x="362.058594" y="672" xlink:href="#l"/>
  <use x="371.65625" y="672" xlink:href="#a"/>
  <use x="390.648438" y="672" xlink:href="#k"/>
  <use x="407.242188" y="672" xlink:href="#c"/>
 </g>
</svg>
