<?xml version="1.0" encoding="UTF-8"?>
<svg width="700pt" height="700pt" version="1.1" viewBox="0 0 700 700" xmlns="http://www.w3.org/2000/svg" xmlns:xlink="http://www.w3.org/1999/xlink">
 <defs>
  <symbol id="v" overflow="visible">
   <path d="m18.766-1.125c-0.96875 0.5-1.9805 0.875-3.0312 1.125-1.043 0.25781-2.1367 0.39062-3.2812 0.39062-3.3984 0-6.0898-0.94531-8.0781-2.8438-1.9922-1.9062-2.9844-4.4844-2.9844-7.7344 0-3.2578 0.99219-5.8359 2.9844-7.7344 1.9883-1.9062 4.6797-2.8594 8.0781-2.8594 1.1445 0 2.2383 0.13281 3.2812 0.39062 1.0508 0.25 2.0625 0.625 3.0312 1.125v4.2188c-0.98047-0.65625-1.9453-1.1406-2.8906-1.4531-0.94922-0.3125-1.9492-0.46875-3-0.46875-1.875 0-3.3516 0.60547-4.4219 1.8125-1.0742 1.1992-1.6094 2.8555-1.6094 4.9688 0 2.1055 0.53516 3.7617 1.6094 4.9688 1.0703 1.1992 2.5469 1.7969 4.4219 1.7969 1.0508 0 2.0508-0.14844 3-0.45312 0.94531-0.3125 1.9102-0.80078 2.8906-1.4688z"/>
  </symbol>
  <symbol id="c" overflow="visible">
   <path d="m13.734-11.141c-0.4375-0.19531-0.87109-0.34375-1.2969-0.4375-0.41797-0.10156-0.83984-0.15625-1.2656-0.15625-1.2617 0-2.2305 0.40625-2.9062 1.2188-0.67969 0.80469-1.0156 1.9531-1.0156 3.4531v7.0625h-4.8906v-15.312h4.8906v2.5156c0.625-1 1.3438-1.7266 2.1562-2.1875 0.82031-0.46875 1.8008-0.70312 2.9375-0.70312 0.16406 0 0.34375 0.011719 0.53125 0.03125 0.19531 0.011719 0.47656 0.039062 0.84375 0.078125z"/>
  </symbol>
  <symbol id="a" overflow="visible">
   <path d="m17.641-7.7031v1.4062h-11.453c0.125 1.1484 0.53906 2.0078 1.25 2.5781 0.70703 0.57422 1.7031 0.85938 2.9844 0.85938 1.0312 0 2.082-0.14844 3.1562-0.45312 1.082-0.3125 2.1914-0.77344 3.3281-1.3906v3.7656c-1.1562 0.4375-2.3125 0.76562-3.4688 0.98438-1.1562 0.22656-2.3125 0.34375-3.4688 0.34375-2.7734 0-4.9297-0.70312-6.4688-2.1094-1.5312-1.4062-2.2969-3.3789-2.2969-5.9219 0-2.5 0.75391-4.4609 2.2656-5.8906 1.5078-1.4375 3.582-2.1562 6.2188-2.1562 2.4062 0 4.332 0.73047 5.7812 2.1875 1.4453 1.4492 2.1719 3.3828 2.1719 5.7969zm-5.0312-1.625c0-0.92578-0.27344-1.6719-0.8125-2.2344-0.54297-0.57031-1.25-0.85938-2.125-0.85938-0.94922 0-1.7188 0.26562-2.3125 0.79688s-0.96484 1.2969-1.1094 2.2969z"/>
  </symbol>
  <symbol id="d" overflow="visible">
   <path d="m9.2188-6.8906c-1.0234 0-1.793 0.17188-2.3125 0.51562-0.51172 0.34375-0.76562 0.85547-0.76562 1.5312 0 0.625 0.20703 1.1172 0.625 1.4688 0.41406 0.34375 0.98828 0.51562 1.7188 0.51562 0.92578 0 1.7031-0.32812 2.3281-0.98438 0.63281-0.66406 0.95312-1.4922 0.95312-2.4844v-0.5625zm7.4688-1.8438v8.7344h-4.9219v-2.2656c-0.65625 0.92969-1.3984 1.6055-2.2188 2.0312-0.82422 0.41406-1.8242 0.625-3 0.625-1.5859 0-2.8711-0.45703-3.8594-1.375-0.99219-0.92578-1.4844-2.1289-1.4844-3.6094 0-1.7891 0.61328-3.1016 1.8438-3.9375 1.2383-0.84375 3.1797-1.2656 5.8281-1.2656h2.8906v-0.39062c0-0.76953-0.30859-1.332-0.92188-1.6875-0.61719-0.36328-1.5703-0.54688-2.8594-0.54688-1.0547 0-2.0312 0.10547-2.9375 0.3125-0.89844 0.21094-1.7305 0.52344-2.5 0.9375v-3.7344c1.0391-0.25 2.0859-0.44141 3.1406-0.57812 1.0625-0.13281 2.125-0.20312 3.1875-0.20312 2.7578 0 4.75 0.54688 5.9688 1.6406 1.2266 1.0859 1.8438 2.8555 1.8438 5.3125z"/>
  </symbol>
  <symbol id="b" overflow="visible">
   <path d="m7.7031-19.656v4.3438h5.0469v3.5h-5.0469v6.5c0 0.71094 0.14062 1.1875 0.42188 1.4375s0.83594 0.375 1.6719 0.375h2.5156v3.5h-4.1875c-1.9375 0-3.3125-0.39844-4.125-1.2031-0.80469-0.8125-1.2031-2.1797-1.2031-4.1094v-6.5h-2.4219v-3.5h2.4219v-4.3438z"/>
  </symbol>
  <symbol id="j" overflow="visible">
   <path d="m12.766-13.078v-8.2031h4.9219v21.281h-4.9219v-2.2188c-0.66797 0.90625-1.4062 1.5703-2.2188 1.9844s-1.7578 0.625-2.8281 0.625c-1.8867 0-3.4336-0.75-4.6406-2.25-1.2109-1.5-1.8125-3.4258-1.8125-5.7812 0-2.3633 0.60156-4.2969 1.8125-5.7969 1.207-1.5 2.7539-2.25 4.6406-2.25 1.0625 0 2 0.21484 2.8125 0.64062 0.82031 0.42969 1.5664 1.0859 2.2344 1.9688zm-3.2188 9.9219c1.0391 0 1.8359-0.37891 2.3906-1.1406 0.55078-0.76953 0.82812-1.8828 0.82812-3.3438 0-1.457-0.27734-2.5664-0.82812-3.3281-0.55469-0.76953-1.3516-1.1562-2.3906-1.1562-1.043 0-1.8398 0.38672-2.3906 1.1562-0.55469 0.76172-0.82812 1.8711-0.82812 3.3281 0 1.4609 0.27344 2.5742 0.82812 3.3438 0.55078 0.76172 1.3477 1.1406 2.3906 1.1406z"/>
  </symbol>
  <symbol id="i" overflow="visible">
   <path d="m10.5-3.1562c1.0508 0 1.8516-0.37891 2.4062-1.1406 0.55078-0.76953 0.82812-1.8828 0.82812-3.3438 0-1.457-0.27734-2.5664-0.82812-3.3281-0.55469-0.76953-1.3555-1.1562-2.4062-1.1562-1.0547 0-1.8594 0.38672-2.4219 1.1562-0.55469 0.77344-0.82812 1.8828-0.82812 3.3281 0 1.4492 0.27344 2.5586 0.82812 3.3281 0.5625 0.77344 1.3672 1.1562 2.4219 1.1562zm-3.25-9.9219c0.67578-0.88281 1.4219-1.5391 2.2344-1.9688 0.82031-0.42578 1.7656-0.64062 2.8281-0.64062 1.8945 0 3.4453 0.75 4.6562 2.25 1.207 1.5 1.8125 3.4336 1.8125 5.7969 0 2.3555-0.60547 4.2812-1.8125 5.7812-1.2109 1.5-2.7617 2.25-4.6562 2.25-1.0625 0-2.0078-0.21094-2.8281-0.625-0.8125-0.42578-1.5586-1.0859-2.2344-1.9844v2.2188h-4.8906v-21.281h4.8906z"/>
  </symbol>
  <symbol id="h" overflow="visible">
   <path d="m0.34375-15.312h4.8906l4.125 10.391 3.5-10.391h4.8906l-6.4375 16.766c-0.64844 1.6953-1.4023 2.8828-2.2656 3.5625-0.86719 0.6875-2 1.0312-3.4062 1.0312h-2.8438v-3.2188h1.5312c0.83203 0 1.4375-0.13672 1.8125-0.40625 0.38281-0.26172 0.67969-0.73047 0.89062-1.4062l0.14062-0.42188z"/>
  </symbol>
  <symbol id="g" overflow="visible">
   <path d="m10.75-12.516c0.82031 0 1.4453-0.17969 1.875-0.54688 0.4375-0.36328 0.65625-0.89844 0.65625-1.6094 0-0.69531-0.21875-1.2266-0.65625-1.5938-0.42969-0.375-1.0547-0.5625-1.875-0.5625h-2.9219v4.3125zm0.17188 8.9375c1.0625 0 1.8594-0.22266 2.3906-0.67188 0.53125-0.44531 0.79688-1.125 0.79688-2.0312 0-0.88281-0.26562-1.5469-0.79688-1.9844-0.52344-0.4375-1.3203-0.65625-2.3906-0.65625h-3.0938v5.3438zm4.8906-7.3438c1.1328 0.32422 2.0078 0.92969 2.625 1.8125 0.625 0.88672 0.9375 1.9688 0.9375 3.25 0 1.9688-0.66797 3.4375-2 4.4062-1.3359 0.96875-3.3555 1.4531-6.0625 1.4531h-8.7344v-20.406h7.8906c2.832 0 4.8828 0.42969 6.1562 1.2812 1.2812 0.85547 1.9219 2.2266 1.9219 4.1094 0 1-0.23438 1.8516-0.70312 2.5469-0.46875 0.6875-1.1484 1.2031-2.0312 1.5469z"/>
  </symbol>
  <symbol id="u" overflow="visible">
   <path d="m2.3594-15.312h4.8906v15.312h-4.8906zm0-5.9688h4.8906v4h-4.8906z"/>
  </symbol>
  <symbol id="t" overflow="visible">
   <path d="m0.14062-20.406h5.2812l5.4219 15.062 5.4062-15.062h5.2812l-7.5625 20.406h-6.2656z"/>
  </symbol>
  <symbol id="s" overflow="visible">
   <path d="m2.5781-20.406h6.6875l4.6562 10.922 4.6719-10.922h6.6875v20.406h-4.9844v-14.938l-4.7031 11.016h-3.3281l-4.7031-11.016v14.938h-4.9844z"/>
  </symbol>
  <symbol id="f" overflow="visible">
   <path d="m17.75-9.3281v9.3281h-4.9219v-7.1094c0-1.3438-0.03125-2.2656-0.09375-2.7656s-0.16797-0.86719-0.3125-1.1094c-0.1875-0.3125-0.44922-0.55469-0.78125-0.73438-0.32422-0.17578-0.69531-0.26562-1.1094-0.26562-1.0234 0-1.8242 0.39844-2.4062 1.1875-0.58594 0.78125-0.875 1.8711-0.875 3.2656v7.5312h-4.8906v-21.281h4.8906v8.2031c0.73828-0.88281 1.5195-1.5391 2.3438-1.9688 0.83203-0.42578 1.75-0.64062 2.75-0.64062 1.7695 0 3.1133 0.54688 4.0312 1.6406 0.91406 1.0859 1.375 2.6562 1.375 4.7188z"/>
  </symbol>
  <symbol id="r" overflow="visible">
   <path d="m12.422-21.281v3.2188h-2.7031c-0.6875 0-1.1719 0.125-1.4531 0.375-0.27344 0.25-0.40625 0.6875-0.40625 1.3125v1.0625h4.1875v3.5h-4.1875v11.812h-4.8906v-11.812h-2.4375v-3.5h2.4375v-1.0625c0-1.6641 0.46094-2.8984 1.3906-3.7031 0.92578-0.80078 2.3672-1.2031 4.3281-1.2031z"/>
  </symbol>
  <symbol id="e" overflow="visible">
   <path d="m9.6406-12.188c-1.0859 0-1.9141 0.39062-2.4844 1.1719-0.57422 0.78125-0.85938 1.9062-0.85938 3.375s0.28516 2.5938 0.85938 3.375c0.57031 0.77344 1.3984 1.1562 2.4844 1.1562 1.0625 0 1.875-0.38281 2.4375-1.1562 0.57031-0.78125 0.85938-1.9062 0.85938-3.375s-0.28906-2.5938-0.85938-3.375c-0.5625-0.78125-1.375-1.1719-2.4375-1.1719zm0-3.5c2.6328 0 4.6914 0.71484 6.1719 2.1406 1.4766 1.418 2.2188 3.3867 2.2188 5.9062 0 2.5117-0.74219 4.4805-2.2188 5.9062-1.4805 1.418-3.5391 2.125-6.1719 2.125-2.6484 0-4.7148-0.70703-6.2031-2.125-1.4922-1.4258-2.2344-3.3945-2.2344-5.9062 0-2.5195 0.74219-4.4883 2.2344-5.9062 1.4883-1.4258 3.5547-2.1406 6.2031-2.1406z"/>
  </symbol>
  <symbol id="q" overflow="visible">
   <path d="m16.547-12.766c0.61328-0.94531 1.3477-1.6719 2.2031-2.1719 0.85156-0.5 1.7891-0.75 2.8125-0.75 1.7578 0 3.0977 0.54688 4.0156 1.6406 0.92578 1.0859 1.3906 2.6562 1.3906 4.7188v9.3281h-4.9219v-7.9844-0.35938c0.007813-0.13281 0.015625-0.32031 0.015625-0.5625 0-1.082-0.16406-1.8633-0.48438-2.3438-0.3125-0.48828-0.82422-0.73438-1.5312-0.73438-0.92969 0-1.6484 0.38672-2.1562 1.1562-0.51172 0.76172-0.77344 1.8672-0.78125 3.3125v7.5156h-4.9219v-7.9844c0-1.6953-0.14844-2.7852-0.4375-3.2656-0.29297-0.48828-0.8125-0.73438-1.5625-0.73438-0.9375 0-1.6641 0.38672-2.1719 1.1562-0.51172 0.76172-0.76562 1.8594-0.76562 3.2969v7.5312h-4.9219v-15.312h4.9219v2.2344c0.60156-0.86328 1.2891-1.5156 2.0625-1.9531 0.78125-0.4375 1.6406-0.65625 2.5781-0.65625 1.0625 0 2 0.25781 2.8125 0.76562 0.8125 0.51172 1.4258 1.2305 1.8438 2.1562z"/>
  </symbol>
  <symbol id="p" overflow="visible">
   <path d="m2.5781-20.406h5.875l7.4219 14v-14h4.9844v20.406h-5.875l-7.4219-14v14h-4.9844z"/>
  </symbol>
  <symbol id="o" overflow="visible">
   <path d="m2.1875-5.9688v-9.3438h4.9219v1.5312c0 0.83594-0.007813 1.875-0.015625 3.125-0.011719 1.25-0.015625 2.0859-0.015625 2.5 0 1.2422 0.03125 2.1328 0.09375 2.6719 0.070313 0.54297 0.17969 0.93359 0.32812 1.1719 0.20703 0.32422 0.47266 0.57422 0.79688 0.75 0.32031 0.16797 0.69141 0.25 1.1094 0.25 1.0195 0 1.8203-0.39062 2.4062-1.1719 0.58203-0.78125 0.875-1.8672 0.875-3.2656v-7.5625h4.8906v15.312h-4.8906v-2.2188c-0.74219 0.89844-1.5234 1.5586-2.3438 1.9844-0.82422 0.41406-1.7344 0.625-2.7344 0.625-1.7617 0-3.1055-0.53906-4.0312-1.625-0.92969-1.082-1.3906-2.6602-1.3906-4.7344z"/>
  </symbol>
  <symbol id="n" overflow="visible">
   <path d="m17.75-9.3281v9.3281h-4.9219v-7.1406c0-1.3203-0.03125-2.2344-0.09375-2.7344s-0.16797-0.86719-0.3125-1.1094c-0.1875-0.3125-0.44922-0.55469-0.78125-0.73438-0.32422-0.17578-0.69531-0.26562-1.1094-0.26562-1.0234 0-1.8242 0.39844-2.4062 1.1875-0.58594 0.78125-0.875 1.8711-0.875 3.2656v7.5312h-4.8906v-15.312h4.8906v2.2344c0.73828-0.88281 1.5195-1.5391 2.3438-1.9688 0.83203-0.42578 1.75-0.64062 2.75-0.64062 1.7695 0 3.1133 0.54688 4.0312 1.6406 0.91406 1.0859 1.375 2.6562 1.375 4.7188z"/>
  </symbol>
  <symbol id="m" overflow="visible">
   <path d="m2.5781-20.406h8.7344c2.5938 0 4.582 0.57812 5.9688 1.7344 1.3945 1.1484 2.0938 2.7891 2.0938 4.9219 0 2.1367-0.69922 3.7812-2.0938 4.9375-1.3867 1.1562-3.375 1.7344-5.9688 1.7344h-3.4844v7.0781h-5.25zm5.25 3.8125v5.7031h2.9219c1.0195 0 1.8047-0.25 2.3594-0.75 0.5625-0.5 0.84375-1.2031 0.84375-2.1094 0-0.91406-0.28125-1.6172-0.84375-2.1094-0.55469-0.48828-1.3398-0.73438-2.3594-0.73438z"/>
  </symbol>
  <symbol id="l" overflow="visible">
   <path d="m2.3594-15.312h4.8906v15.031c0 2.0508-0.49609 3.6172-1.4844 4.7031-0.98047 1.082-2.4062 1.625-4.2812 1.625h-2.4219v-3.2188h0.85938c0.92578 0 1.5625-0.21094 1.9062-0.625 0.35156-0.41797 0.53125-1.2461 0.53125-2.4844zm0-5.9688h4.8906v4h-4.8906z"/>
  </symbol>
  <symbol id="k" overflow="visible">
   <path d="m14.719-14.828v3.9844c-0.65625-0.45703-1.3242-0.79688-2-1.0156-0.66797-0.21875-1.3594-0.32812-2.0781-0.32812-1.3672 0-2.4336 0.40234-3.2031 1.2031-0.76172 0.79297-1.1406 1.9062-1.1406 3.3438 0 1.4297 0.37891 2.543 1.1406 3.3438 0.76953 0.79297 1.8359 1.1875 3.2031 1.1875 0.75781 0 1.4844-0.10938 2.1719-0.32812 0.6875-0.22656 1.3203-0.56641 1.9062-1.0156v4c-0.76172 0.28125-1.5391 0.48828-2.3281 0.625-0.78125 0.14453-1.5742 0.21875-2.375 0.21875-2.7617 0-4.9219-0.70703-6.4844-2.125-1.5547-1.4141-2.3281-3.3828-2.3281-5.9062 0-2.5312 0.77344-4.5039 2.3281-5.9219 1.5625-1.4141 3.7227-2.125 6.4844-2.125 0.80078 0 1.5938 0.074219 2.375 0.21875 0.78125 0.13672 1.5547 0.35156 2.3281 0.64062z"/>
  </symbol>
 </defs>
 <g>
  <path d="m197.12 220.3c3.3594 0 6.082 2.7227 6.082 6.082s-2.7227 6.0859-6.082 6.0859-6.082-2.7227-6.082-6.082 2.7227-6.0859 6.082-6.0859zm49.621 0c-3.3594 0-6.082 2.7227-6.082 6.082s2.7227 6.082 6.082 6.082c3.3594 0 6.082-2.7227 6.082-6.082s-2.7227-6.082-6.082-6.082zm312.29 303.94 13.727-94.367c0.027344-0.19141 0.050782-0.38672 0.054688-0.57812l3.2266-78.887c0.13281-1.707 0.20703-3.4375 0.20703-5.1797v-0.078125-53.559c3.2266 9.3984 6.5312 25.652 7.8242 53.691 0 0.11328 0.003907 0.21875 0.015626 0.32422 0.35156 7.8398 0.55859 16.586 0.55859 26.363 0 0.50391 0.066407 0.99219 0.19141 1.457-0.45313 1.6914-0.11328 3.5664 1.0938 5.0195 1.9727 2.375 5.5 2.7109 7.8867 0.74609 1.0547-0.875 10.297-8.8555 10.059-20.047-0.13281-6.1836-3.0742-11.801-8.7539-16.738-1.9766-37.574-8.0039-61.852-17.707-70.852-1.2539-1.1641-2.457-1.9727-3.5664-2.5352-7.6289-27.172-32.625-47.145-62.199-47.145h-224.21l1.0977-5.3984c1.0859-5.3125 1.4336-10.672 1.0742-15.949 9.8516 6.2891 18.973 8.3281 27.195 6.0664 14.941-4.1094 20.316-20.797 20.535-21.508 0.55859-1.7695 0.19531-3.707-0.96484-5.1562-6.9258-8.7148-15.148-13.383-24.426-13.875-6.0273-0.35156-11.688 1.2266-16.465 3.375 15.539-36.637-2.2188-62.52-3.1016-63.773-1.3477-1.9141-3.7734-2.7734-6.0156-2.1797-2.2617 0.60547-3.9141 2.5586-4.1328 4.8906-2.9844 31.902-26.359 41.523-27.328 41.906-0.09375 0.035156-0.18359 0.074218-0.28125 0.11719-7.5273-3.3711-15.77-5.1641-24.277-5.1641h-17.148c-8.9805 0-17.68 2-25.547 5.7461-0.37891-0.27344-0.80078-0.50781-1.2539-0.69531-0.99609-0.39062-24.367-10.012-27.352-41.914-0.21875-2.3359-1.8711-4.2852-4.1328-4.8906-2.2305-0.58984-4.6602 0.26953-6.0156 2.1797-0.88672 1.2539-18.641 27.137-3.1016 63.773-4.7773-2.1523-10.371-3.7305-16.465-3.375-9.2773 0.49219-17.5 5.1562-24.426 13.875-1.1602 1.4492-1.5195 3.3828-0.96484 5.1562 0.21875 0.70703 5.5938 17.398 20.535 21.508 8.8945 2.4531 18.816-0.12891 29.59-7.6602-0.55469 5.7852-0.25391 11.691 0.94531 17.543l17.031 83.496c4.5234 22.188 24.242 38.293 46.891 38.293h1.2539v6.9258c0 25.43 14.766 47.477 36.18 58.004l20.508 121.17c0.46094 2.6953 2.7891 4.6641 5.5234 4.6641h59.191c2.9062 0 5.332-2.2227 5.5781-5.1172l9.8516-114.12h34.57c4.6133 7.332 18.238 26.188 40.914 34.797v23.082c0 3.0898 2.5039 5.6016 5.6016 5.6016 3.0977 0 5.6016-2.5078 5.6016-5.6016v-19.891c1.6914 0.33203 3.3867 0.58984 5.0977 0.78516v9.6758c0 3.0898 2.5039 5.6016 5.6016 5.6016s5.6016-2.5078 5.6016-5.6016v-9.3398c5.9258-0.3125 11.938-1.3789 18.039-3.2031l8.1094 78.316c0.29688 2.8555 2.6992 5.0234 5.5703 5.0234h61.762c2.7891 0.003906 5.1445-2.043 5.543-4.793zm-38.543-94.309c0-1.9102-0.97266-3.6914-2.5859-4.7227l-24.152-15.418h17.898c21.191 0 40.027-10.258 51.816-26.066l-1.832 44.824-12.988 89.281h-28.156zm-31.59 11.766c6.0195-2.6367 12.113-5.9883 18.266-10.051l2.1289 1.3555v84.836l-12.516-0.003906zm-185.62-31.902h42.516l-9.3242 108.04h-20.754zm-34.781-2.0781c5.2148 1.3594 10.668 2.082 16.297 2.082h7.207l12.438 108.04h-17.297zm204.44 2.0781 23.801 15.191c-5.2656 3.1797-10.449 5.7734-15.547 7.7656-0.21875 0.074219-0.42969 0.15234-0.63672 0.24609-12.957 4.957-25.344 6.0664-37.055 3.2773-18.469-4.3945-31.383-17.68-38.18-26.488l67.617 0.003907zm1.5508-11.199h-122.54c-0.042969 0.003906-0.078125 0-0.11719 0h-54.758c-0.042969 0-0.09375-0.003906-0.15234 0h-12.129c-7.3008 0-14.273-1.4727-20.621-4.1367-0.35156-0.20703-0.73828-0.37109-1.1328-0.49219-18.633-8.3438-31.645-27.066-31.645-48.766v-7.4141c19.707-2.8398 36.043-17.863 40.105-37.805l0.79688-3.8867c0.023438-0.085937 0.039063-0.16406 0.054688-0.24609l12.797-62.766h226.5c25.098 0 46.211 17.406 51.895 40.777 0.042969 0.53125 0.16406 1.043 0.34766 1.5195 0.76172 3.5859 1.1602 7.2969 1.1602 11.098v58.605l-0.19141 4.6328c-2.3008 27.332-25.285 48.883-53.207 48.883h-36.98c-0.0625-0.003906-0.12891-0.003906-0.18359-0.003906zm-213.72-101.99-0.23047 1.1367c-3.4648 16.996-18.57 29.332-35.918 29.332h-5.6719c-17.348 0-32.453-12.336-35.918-29.332l-0.15234-0.76562c12.438-10.203 46.266-32.039 77.891-0.37109zm-30.41-140.17c14.527 0 28.125 6.4531 37.32 17.707 2.8555 3.5 5.1758 7.3242 6.9219 11.355 0.050782 1.2266 0.50391 2.4258 1.3164 3.3867 2.7812 8.0469 3.3984 16.773 1.6523 25.363l-2.1445 10.5c-0.58984 0.96875-0.89062 2.1211-0.80078 3.3438 0.011718 0.125 0.023437 0.24609 0.042968 0.37109l-11.297 55.344c-27.914-23.457-59.422-16.25-82.992 0.94141l-14.379-70.504c-2.9062-14.234 0.69922-28.852 9.8906-40.102 9.1914-11.258 22.793-17.707 37.324-17.707zm74.484 37.227c3.0977 0 5.6016-2.5078 5.6016-5.6016 0-3.0898-2.5039-5.6016-5.6016-5.6016h-9.8828c4.25-2.7383 10.238-5.5898 16.402-5.2188 5.1797 0.27344 9.832 2.6484 14.164 7.2344-1.7305 3.6016-5.4766 9.6445-11.73 11.336-3.8867 1.0586-8.4727 0.30859-13.578-2.1523zm-174.95-16.418c6.2109-0.33594 12.23 2.4688 16.477 5.2188h-9.918c-3.0977 0-5.6016 2.5078-5.6016 5.6016 0 3.0898 2.5039 5.6016 5.6016 5.6016h4.6328c-5.1133 2.4531-9.6953 3.207-13.578 2.1523-6.2617-1.6914-10.008-7.7461-11.73-11.336 4.3203-4.5781 8.9609-6.9531 14.117-7.2383zm46.754-19.434c-3.4375 2.6953-6.6094 5.7852-9.4375 9.2461-2.1836 2.6719-4.1055 5.4922-5.7617 8.4336-11.801-19.891-11.934-36.645-9.5039-47.938 6.2695 16.941 17.766 26.07 24.703 30.258zm112.65-30.094c2.2969 10.941 2.2188 26.965-8.3281 45.832-1.3828-2.2461-2.9219-4.418-4.6211-6.4961-3.1016-3.7969-6.6133-7.1562-10.445-10.023 6.9805-4.4766 17.48-13.453 23.395-29.312zm-52.23 181.27v-6.7266c0-3.0898-2.5039-5.6016-5.6016-5.6016s-5.6016 2.5078-5.6016 5.6016v6.7266c0 3.0898 2.5039 5.6016 5.6016 5.6016s5.6016-2.5078 5.6016-5.6016zm-19.367 0v-6.7266c0-3.0898-2.5039-5.6016-5.6016-5.6016s-5.6016 2.5078-5.6016 5.6016v6.7266c0 3.0898 2.5039 5.6016 5.6016 5.6016s5.6016-2.5078 5.6016-5.6016z"/>
  <use x="70" y="644" xlink:href="#v"/>
  <use x="90.550781" y="644" xlink:href="#c"/>
  <use x="104.359375" y="644" xlink:href="#a"/>
  <use x="123.347656" y="644" xlink:href="#d"/>
  <use x="142.242188" y="644" xlink:href="#b"/>
  <use x="155.628906" y="644" xlink:href="#a"/>
  <use x="174.617188" y="644" xlink:href="#j"/>
  <use x="204.410156" y="644" xlink:href="#i"/>
  <use x="224.453125" y="644" xlink:href="#h"/>
  <use x="252.453125" y="644" xlink:href="#g"/>
  <use x="273.792969" y="644" xlink:href="#u"/>
  <use x="283.390625" y="644" xlink:href="#c"/>
  <use x="297.199219" y="644" xlink:href="#t"/>
  <use x="318.867188" y="644" xlink:href="#d"/>
  <use x="347.511719" y="644" xlink:href="#s"/>
  <use x="375.375" y="644" xlink:href="#a"/>
  <use x="394.367188" y="644" xlink:href="#f"/>
  <use x="414.296875" y="644" xlink:href="#b"/>
  <use x="427.683594" y="644" xlink:href="#d"/>
  <use x="70" y="672" xlink:href="#r"/>
  <use x="82.183594" y="672" xlink:href="#c"/>
  <use x="95.992188" y="672" xlink:href="#e"/>
  <use x="115.226562" y="672" xlink:href="#q"/>
  <use x="154.152344" y="672" xlink:href="#b"/>
  <use x="167.535156" y="672" xlink:href="#f"/>
  <use x="187.46875" y="672" xlink:href="#a"/>
  <use x="216.207031" y="672" xlink:href="#p"/>
  <use x="239.640625" y="672" xlink:href="#e"/>
  <use x="258.878906" y="672" xlink:href="#o"/>
  <use x="278.8125" y="672" xlink:href="#n"/>
  <use x="308.492188" y="672" xlink:href="#m"/>
  <use x="329.015625" y="672" xlink:href="#c"/>
  <use x="342.820312" y="672" xlink:href="#e"/>
  <use x="362.058594" y="672" xlink:href="#l"/>
  <use x="371.65625" y="672" xlink:href="#a"/>
  <use x="390.648438" y="672" xlink:href="#k"/>
  <use x="407.242188" y="672" xlink:href="#b"/>
 </g>
</svg>
